  0
SECTION
  2
HEADER
  9
$ACADVER
  1
AC1014
  9
$HANDSEED
  5
FFFF
  9
$MEASUREMENT
 70
     1
  0
ENDSEC
  0
SECTION
  2
TABLES
  0
TABLE
  2
VPORT
  5
8
330
0
100
AcDbSymbolTable
 70
     4
  0
VPORT
  5
2E
330
8
100
AcDbSymbolTableRecord
100
AcDbViewportTableRecord
  2
*ACTIVE
 70
     0
 10
0.0
 20
0.0
 11
1.0
 21
1.0
 12
210.0
 22
148.5
 13
0.0
 23
0.0
 14
10.0
 24
10.0
 15
10.0
 25
10.0
 16
0.0
 26
0.0
 36
1.0
 17
0.0
 27
0.0
 37
0.0
 40
341.0
 41
1.24
 42
50.0
 43
0.0
 44
0.0
 50
0.0
 51
0.0
 71
     0
 72
   100
 73
     1
 74
     3
 75
     0
 76
     0
 77
     0
 78
     0
  0
ENDTAB
  0
TABLE
  2
LTYPE
  5
5
330
0
100
AcDbSymbolTable
 70
     1
  0
LTYPE
  5
14
330
5
100
AcDbSymbolTableRecord
100
AcDbLinetypeTableRecord
  2
BYBLOCK
 70
     0
  3

 72
    65
 73
     0
 40
0.0
  0
LTYPE
  5
15
330
5
100
AcDbSymbolTableRecord
100
AcDbLinetypeTableRecord
  2
BYLAYER
 70
     0
  3

 72
    65
 73
     0
 40
0.0
  0
LTYPE
  5
16
330
5
100
AcDbSymbolTableRecord
100
AcDbLinetypeTableRecord
  2
CONTINUOUS
 70
     0
  3
Solid line
 72
    65
 73
     0
 40
0.0
  0
ENDTAB
  0
TABLE
  2
LAYER
  5
2
100
AcDbSymbolTable
 70
2
  0
LAYER
  5
50
100
AcDbSymbolTableRecord
100
AcDbLayerTableRecord
  2
0
 70
0
  6
CONTINUOUS
  0
LAYER
  5
51
100
AcDbSymbolTableRecord
100
AcDbLayerTableRecord
  2
Image
 70
0
  6
CONTINUOUS
  0
ENDTAB
  0
TABLE
  2
STYLE
  5
3
330
0
100
AcDbSymbolTable
 70
     1
  0
STYLE
  5
11
330
3
100
AcDbSymbolTableRecord
100
AcDbTextStyleTableRecord
  2
STANDARD
 70
     0
 40
0.0
 41
1.0
 50
0.0
 71
     0
 42
2.5
  3
txt
  4

  0
ENDTAB
  0
TABLE
  2
VIEW
  5
6
330
0
100
AcDbSymbolTable
 70
     0
  0
ENDTAB
  0
TABLE
  2
UCS
  5
7
330
0
100
AcDbSymbolTable
 70
     0
  0
ENDTAB
  0
TABLE
  2
APPID
  5
9
330
0
100
AcDbSymbolTable
 70
     2
  0
APPID
  5
12
330
9
100
AcDbSymbolTableRecord
100
AcDbRegAppTableRecord
  2
ACAD
 70
     0
  0
ENDTAB
  0
TABLE
  2
DIMSTYLE
  5
A
330
0
100
AcDbSymbolTable
 70
     1
  0
DIMSTYLE
105
27
330
A
100
AcDbSymbolTableRecord
100
AcDbDimStyleTableRecord
  2
ISO-25
 70
     0
  3

  4

  5

  6

  7

 40
1.0
 41
2.5
 42
0.625
 43
3.75
 44
1.25
 45
0.0
 46
0.0
 47
0.0
 48
0.0
140
2.5
141
2.5
142
0.0
143
0.03937007874016
144
1.0
145
0.0
146
1.0
147
0.625
 71
     0
 72
     0
 73
     0
 74
     0
 75
     0
 76
     0
 77
     1
 78
     8
170
     0
171
     3
172
     1
173
     0
174
     0
175
     0
176
     0
177
     0
178
     0
270
     2
271
     2
272
     2
273
     2
274
     3
340
11
275
     0
280
     0
281
     0
282
     0
283
     0
284
     8
285
     0
286
     0
287
     3
288
     0
  0
ENDTAB
  0
TABLE
  2
BLOCK_RECORD
  5
1
330
0
100
AcDbSymbolTable
 70
     1
  0
BLOCK_RECORD
  5
1F
330
1
100
AcDbSymbolTableRecord
100
AcDbBlockTableRecord
  2
*MODEL_SPACE
  0
BLOCK_RECORD
  5
1B
330
1
100
AcDbSymbolTableRecord
100
AcDbBlockTableRecord
  2
*PAPER_SPACE
  0
ENDTAB
  0
ENDSEC
  0
SECTION
  2
BLOCKS
  0
BLOCK
  5
20
330
1F
100
AcDbEntity
  8
0
100
AcDbBlockBegin
  2
*MODEL_SPACE
 70
     0
 10
0.0
 20
0.0
 30
0.0
  3
*MODEL_SPACE
  1

  0
ENDBLK
  5
21
330
1F
100
AcDbEntity
  8
0
100
AcDbBlockEnd
  0
BLOCK
  5
1C
330
1B
100
AcDbEntity
 67
     1
  8
0
100
AcDbBlockBegin
  2
*PAPER_SPACE
  1

  0
ENDBLK
  5
1D
330
1B
100
AcDbEntity
 67
     1
  8
0
100
AcDbBlockEnd
  0
ENDSEC
  0
SECTION
  2
ENTITIES
  0
SPLINE
  5
100
100
AcDbEntity
  8
Image
 62
7
100
AcDbSpline
 70
8
 71
3
 72
8
 73
4
 74
0
 40
0
 40
0
 40
0
 40
0
 40
1
 40
1
 40
1
 40
1
 10
100.202817
 20
74.943229
 30
0.0
 10
100.503744
 20
75.270651
 30
0.0
 10
105.335594
 20
85.420729
 30
0.0
 10
110.940260
 20
97.498958
 30
0.0
  0
SPLINE
  5
101
100
AcDbEntity
  8
Image
 62
7
100
AcDbSpline
 70
8
 71
3
 72
8
 73
4
 74
0
 40
0
 40
0
 40
0
 40
0
 40
1
 40
1
 40
1
 40
1
 10
110.940260
 20
97.498958
 30
0.0
 10
116.544926
 20
109.577187
 30
0.0
 10
122.061462
 20
121.423906
 30
0.0
 10
123.199229
 20
123.825000
 30
0.0
  0
LWPOLYLINE
  5
102
100
AcDbEntity
  8
Image
 62
7
100
AcDbPolyline
 90
8
 70
1
 10
31.750000
 20
132.423958
 30
0.0
 10
31.750000
 20
213.254167
 30
0.0
 10
99.086458
 20
213.254167
 30
0.0
 10
166.422917
 20
213.254167
 30
0.0
 10
166.422917
 20
132.423958
 30
0.0
 10
166.422917
 20
51.593750
 30
0.0
 10
99.086458
 20
51.593750
 30
0.0
 10
31.750000
 20
51.593750
 30
0.0
  0
SPLINE
  5
103
100
AcDbEntity
  8
Image
 62
7
100
AcDbSpline
 70
8
 71
3
 72
8
 73
4
 74
0
 40
0
 40
0
 40
0
 40
0
 40
1
 40
1
 40
1
 40
1
 10
112.981232
 20
160.418243
 30
0.0
 10
106.218913
 20
174.941973
 30
0.0
 10
100.470377
 20
187.056583
 30
0.0
 10
100.206709
 20
187.339597
 30
0.0
  0
SPLINE
  5
104
100
AcDbEntity
  8
Image
 62
7
100
AcDbSpline
 70
8
 71
3
 72
8
 73
4
 74
0
 40
0
 40
0
 40
0
 40
0
 40
1
 40
1
 40
1
 40
1
 10
100.206709
 20
187.339597
 30
0.0
 10
99.569045
 20
188.024050
 30
0.0
 10
98.642559
 20
187.990599
 30
0.0
 10
97.970496
 20
187.258854
 30
0.0
  0
SPLINE
  5
105
100
AcDbEntity
  8
Image
 62
7
100
AcDbSpline
 70
8
 71
3
 72
8
 73
4
 74
0
 40
0
 40
0
 40
0
 40
0
 40
1
 40
1
 40
1
 40
1
 10
97.970496
 20
187.258854
 30
0.0
 10
97.456673
 20
186.699401
 30
0.0
 10
73.903642
 20
136.259091
 30
0.0
 10
73.122782
 20
134.045902
 30
0.0
  0
SPLINE
  5
106
100
AcDbEntity
  8
Image
 62
7
100
AcDbSpline
 70
8
 71
3
 72
8
 73
4
 74
0
 40
0
 40
0
 40
0
 40
0
 40
1
 40
1
 40
1
 40
1
 10
73.122782
 20
134.045902
 30
0.0
 10
72.613740
 20
132.603118
 30
0.0
 10
72.678380
 20
129.526371
 30
0.0
 10
73.251359
 20
127.926042
 30
0.0
  0
SPLINE
  5
107
100
AcDbEntity
  8
Image
 62
7
100
AcDbSpline
 70
8
 71
3
 72
8
 73
4
 74
0
 40
0
 40
0
 40
0
 40
0
 40
1
 40
1
 40
1
 40
1
 10
73.251359
 20
127.926042
 30
0.0
 10
74.122889
 20
125.491862
 30
0.0
 10
97.432336
 20
75.546815
 30
0.0
 10
97.978539
 20
74.943229
 30
0.0
  0
SPLINE
  5
108
100
AcDbEntity
  8
Image
 62
7
100
AcDbSpline
 70
8
 71
3
 72
8
 73
4
 74
0
 40
0
 40
0
 40
0
 40
0
 40
1
 40
1
 40
1
 40
1
 10
97.978539
 20
74.943229
 30
0.0
 10
98.274833
 20
74.615807
 30
0.0
 10
98.773403
 20
74.347917
 30
0.0
 10
99.086472
 20
74.347917
 30
0.0
  0
SPLINE
  5
109
100
AcDbEntity
  8
Image
 62
7
100
AcDbSpline
 70
8
 71
3
 72
8
 73
4
 74
0
 40
0
 40
0
 40
0
 40
0
 40
1
 40
1
 40
1
 40
1
 10
99.086472
 20
74.347917
 30
0.0
 10
99.399540
 20
74.347917
 30
0.0
 10
99.901902
 20
74.615807
 30
0.0
 10
100.202831
 20
74.943229
 30
0.0
  0
LWPOLYLINE
  5
10a
100
AcDbEntity
  8
Image
 62
7
100
AcDbPolyline
 90
5
 70
0
 10
123.199229
 20
123.825000
 30
0.0
 10
125.267892
 20
128.190625
 30
0.0
 10
125.272125
 20
131.101042
 30
0.0
 10
125.276359
 20
134.011458
 30
0.0
 10
112.981232
 20
160.418243
 30
0.0
  0
SPLINE
  5
10b
100
AcDbEntity
  8
Image
 62
7
100
AcDbSpline
 70
8
 71
3
 72
8
 73
4
 74
0
 40
0
 40
0
 40
0
 40
0
 40
1
 40
1
 40
1
 40
1
 10
98.343469
 20
88.927141
 30
0.0
 10
97.992282
 20
89.712578
 30
0.0
 10
94.578130
 20
97.082240
 30
0.0
 10
90.756465
 20
105.304167
 30
0.0
  0
SPLINE
  5
10c
100
AcDbEntity
  8
Image
 62
7
100
AcDbSpline
 70
8
 71
3
 72
8
 73
4
 74
0
 40
0
 40
0
 40
0
 40
0
 40
1
 40
1
 40
1
 40
1
 10
90.756465
 20
105.304167
 30
0.0
 10
81.133842
 20
126.006273
 30
0.0
 10
78.845833
 20
130.971343
 30
0.0
 10
78.845833
 20
131.150715
 30
0.0
  0
SPLINE
  5
10d
100
AcDbEntity
  8
Image
 62
7
100
AcDbSpline
 70
8
 71
3
 72
8
 73
4
 74
0
 40
0
 40
0
 40
0
 40
0
 40
1
 40
1
 40
1
 40
1
 10
78.845833
 20
131.150715
 30
0.0
 10
78.845833
 20
131.235966
 30
0.0
 10
80.594716
 20
135.069665
 30
0.0
 10
82.732240
 20
139.670047
 30
0.0
  0
SPLINE
  5
10e
100
AcDbEntity
  8
Image
 62
7
100
AcDbSpline
 70
8
 71
3
 72
8
 73
4
 74
0
 40
0
 40
0
 40
0
 40
0
 40
1
 40
1
 40
1
 40
1
 10
82.732240
 20
139.670047
 30
0.0
 10
84.869761
 20
144.270426
 30
0.0
 10
89.370773
 20
153.968561
 30
0.0
 10
92.734487
 20
161.221457
 30
0.0
  0
SPLINE
  5
10f
100
AcDbEntity
  8
Image
 62
7
100
AcDbSpline
 70
8
 71
3
 72
8
 73
4
 74
0
 40
0
 40
0
 40
0
 40
0
 40
1
 40
1
 40
1
 40
1
 10
92.734487
 20
161.221457
 30
0.0
 10
96.098201
 20
168.474350
 30
0.0
 10
98.960371
 20
174.410314
 30
0.0
 10
99.094864
 20
174.412487
 30
0.0
  0
SPLINE
  5
110
100
AcDbEntity
  8
Image
 62
7
100
AcDbSpline
 70
8
 71
3
 72
8
 73
4
 74
0
 40
0
 40
0
 40
0
 40
0
 40
1
 40
1
 40
1
 40
1
 10
99.094864
 20
174.412487
 30
0.0
 10
99.229357
 20
174.414603
 30
0.0
 10
102.233069
 20
168.182817
 30
0.0
 10
105.769780
 20
160.563949
 30
0.0
  0
SPLINE
  5
111
100
AcDbEntity
  8
Image
 62
7
100
AcDbSpline
 70
8
 71
3
 72
8
 73
4
 74
0
 40
0
 40
0
 40
0
 40
0
 40
1
 40
1
 40
1
 40
1
 10
105.769780
 20
160.563949
 30
0.0
 10
109.306490
 20
152.945079
 30
0.0
 10
113.698872
 20
143.496771
 30
0.0
 10
115.530627
 20
139.567708
 30
0.0
  0
SPLINE
  5
112
100
AcDbEntity
  8
Image
 62
7
100
AcDbSpline
 70
8
 71
3
 72
8
 73
4
 74
0
 40
0
 40
0
 40
0
 40
0
 40
1
 40
1
 40
1
 40
1
 10
115.530627
 20
139.567708
 30
0.0
 10
117.362383
 20
135.638646
 30
0.0
 10
118.975865
 20
132.101479
 30
0.0
 10
119.116142
 20
131.707337
 30
0.0
  0
SPLINE
  5
113
100
AcDbEntity
  8
Image
 62
7
100
AcDbSpline
 70
8
 71
3
 72
8
 73
4
 74
0
 40
0
 40
0
 40
0
 40
0
 40
1
 40
1
 40
1
 40
1
 10
119.116142
 20
131.707337
 30
0.0
 10
119.342453
 20
131.071467
 30
0.0
 10
118.247361
 20
128.567122
 30
0.0
 10
109.397681
 20
109.482337
 30
0.0
  0
SPLINE
  5
114
100
AcDbEntity
  8
Image
 62
7
100
AcDbSpline
 70
8
 71
3
 72
8
 73
4
 74
0
 40
0
 40
0
 40
0
 40
0
 40
1
 40
1
 40
1
 40
1
 10
109.397681
 20
109.482337
 30
0.0
 10
103.912249
 20
97.652729
 30
0.0
 10
99.324679
 20
87.867109
 30
0.0
 10
99.203081
 20
87.736516
 30
0.0
  0
SPLINE
  5
115
100
AcDbEntity
  8
Image
 62
7
100
AcDbSpline
 70
8
 71
3
 72
8
 73
4
 74
0
 40
0
 40
0
 40
0
 40
0
 40
1
 40
1
 40
1
 40
1
 10
99.203081
 20
87.736516
 30
0.0
 10
99.079381
 20
87.603666
 30
0.0
 10
98.700730
 20
88.128123
 30
0.0
 10
98.343469
 20
88.927141
 30
0.0
  0
LWPOLYLINE
  5
116
100
AcDbEntity
  8
Image
 62
7
100
AcDbPolyline
 90
1
 70
1
 10
100.202831
 20
74.943229
 30
0.0
  0
SPLINE
  5
117
100
AcDbEntity
  8
Image
 62
7
100
AcDbSpline
 70
8
 71
3
 72
8
 73
4
 74
0
 40
0
 40
0
 40
0
 40
0
 40
1
 40
1
 40
1
 40
1
 10
100.163783
 20
101.533854
 30
0.0
 10
100.116973
 20
101.859882
 30
0.0
 10
99.810774
 20
102.021172
 30
0.0
 10
99.128860
 20
102.078994
 30
0.0
  0
SPLINE
  5
118
100
AcDbEntity
  8
Image
 62
7
100
AcDbSpline
 70
8
 71
3
 72
8
 73
4
 74
0
 40
0
 40
0
 40
0
 40
0
 40
1
 40
1
 40
1
 40
1
 10
99.128860
 20
102.078994
 30
0.0
 10
98.300778
 20
102.149209
 30
0.0
 10
98.160417
 20
102.082089
 30
0.0
 10
98.160417
 20
101.615973
 30
0.0
  0
SPLINE
  5
119
100
AcDbEntity
  8
Image
 62
7
100
AcDbSpline
 70
8
 71
3
 72
8
 73
4
 74
0
 40
0
 40
0
 40
0
 40
0
 40
1
 40
1
 40
1
 40
1
 10
98.160417
 20
101.615973
 30
0.0
 10
98.160417
 20
101.158421
 30
0.0
 10
98.326699
 20
101.070833
 30
0.0
 10
99.195340
 20
101.070833
 30
0.0
  0
SPLINE
  5
11a
100
AcDbEntity
  8
Image
 62
7
100
AcDbSpline
 70
8
 71
3
 72
8
 73
4
 74
0
 40
0
 40
0
 40
0
 40
0
 40
1
 40
1
 40
1
 40
1
 10
99.195340
 20
101.070833
 30
0.0
 10
100.029915
 20
101.070833
 30
0.0
 10
100.217391
 20
101.160469
 30
0.0
 10
100.163783
 20
101.533854
 30
0.0
  0
LWPOLYLINE
  5
11b
100
AcDbEntity
  8
Image
 62
7
100
AcDbPolyline
 90
1
 70
1
 10
98.343469
 20
88.927141
 30
0.0
  0
SPLINE
  5
11c
100
AcDbEntity
  8
Image
 62
7
100
AcDbSpline
 70
8
 71
3
 72
8
 73
4
 74
0
 40
0
 40
0
 40
0
 40
0
 40
1
 40
1
 40
1
 40
1
 10
101.070833
 20
103.996866
 30
0.0
 10
101.070833
 20
104.459564
 30
0.0
 10
100.874333
 20
104.510417
 30
0.0
 10
99.086458
 20
104.510417
 30
0.0
  0
SPLINE
  5
11d
100
AcDbEntity
  8
Image
 62
7
100
AcDbSpline
 70
8
 71
3
 72
8
 73
4
 74
0
 40
0
 40
0
 40
0
 40
0
 40
1
 40
1
 40
1
 40
1
 10
99.086458
 20
104.510417
 30
0.0
 10
97.293935
 20
104.510417
 30
0.0
 10
97.102083
 20
104.460424
 30
0.0
 10
97.102083
 20
103.993339
 30
0.0
  0
SPLINE
  5
11e
100
AcDbEntity
  8
Image
 62
7
100
AcDbSpline
 70
8
 71
3
 72
8
 73
4
 74
0
 40
0
 40
0
 40
0
 40
0
 40
1
 40
1
 40
1
 40
1
 10
97.102083
 20
103.993339
 30
0.0
 10
97.102083
 20
103.539086
 30
0.0
 10
97.319079
 20
103.466754
 30
0.0
 10
98.888021
 20
103.398026
 30
0.0
  0
SPLINE
  5
11f
100
AcDbEntity
  8
Image
 62
7
100
AcDbSpline
 70
8
 71
3
 72
8
 73
4
 74
0
 40
0
 40
0
 40
0
 40
0
 40
1
 40
1
 40
1
 40
1
 10
98.888021
 20
103.398026
 30
0.0
 10
100.991419
 20
103.305885
 30
0.0
 10
101.070833
 20
103.327671
 30
0.0
 10
101.070833
 20
103.996866
 30
0.0
  0
LWPOLYLINE
  5
120
100
AcDbEntity
  8
Image
 62
7
100
AcDbPolyline
 90
1
 70
1
 10
100.163783
 20
101.533854
 30
0.0
  0
LWPOLYLINE
  5
121
100
AcDbEntity
  8
Image
 62
7
100
AcDbPolyline
 90
1
 70
1
 10
101.070833
 20
103.996866
 30
0.0
  0
LWPOLYLINE
  5
122
100
AcDbEntity
  8
Image
 62
7
100
AcDbPolyline
 90
8
 70
1
 10
102.129167
 20
106.230208
 30
0.0
 10
102.129167
 20
106.891667
 30
0.0
 10
99.086458
 20
106.891667
 30
0.0
 10
96.043750
 20
106.891667
 30
0.0
 10
96.043750
 20
106.230208
 30
0.0
 10
96.043750
 20
105.568750
 30
0.0
 10
99.086458
 20
105.568750
 30
0.0
 10
102.129167
 20
105.568750
 30
0.0
  0
SPLINE
  5
123
100
AcDbEntity
  8
Image
 62
7
100
AcDbSpline
 70
8
 71
3
 72
8
 73
4
 74
0
 40
0
 40
0
 40
0
 40
0
 40
1
 40
1
 40
1
 40
1
 10
104.245833
 20
110.860417
 30
0.0
 10
104.245833
 20
111.348081
 30
0.0
 10
104.069444
 20
111.389583
 30
0.0
 10
101.996875
 20
111.389583
 30
0.0
  0
LWPOLYLINE
  5
124
100
AcDbEntity
  8
Image
 62
7
100
AcDbPolyline
 90
8
 70
1
 10
103.187500
 20
108.611458
 30
0.0
 10
103.187500
 20
109.272917
 30
0.0
 10
99.086458
 20
109.272917
 30
0.0
 10
94.985417
 20
109.272917
 30
0.0
 10
94.985417
 20
108.611458
 30
0.0
 10
94.985417
 20
107.950000
 30
0.0
 10
99.086458
 20
107.950000
 30
0.0
 10
103.187500
 20
107.950000
 30
0.0
  0
SPLINE
  5
125
100
AcDbEntity
  8
Image
 62
7
100
AcDbSpline
 70
8
 71
3
 72
8
 73
4
 74
0
 40
0
 40
0
 40
0
 40
0
 40
1
 40
1
 40
1
 40
1
 10
98.018036
 20
122.380637
 30
0.0
 10
96.237642
 20
122.571301
 30
0.0
 10
95.008189
 20
123.219689
 30
0.0
 10
95.356971
 20
123.784032
 30
0.0
  0
SPLINE
  5
126
100
AcDbEntity
  8
Image
 62
7
100
AcDbSpline
 70
8
 71
3
 72
8
 73
4
 74
0
 40
0
 40
0
 40
0
 40
0
 40
1
 40
1
 40
1
 40
1
 10
95.356971
 20
123.784032
 30
0.0
 10
95.462114
 20
123.954154
 30
0.0
 10
95.880060
 20
124.264989
 30
0.0
 10
96.285743
 20
124.474777
 30
0.0
  0
SPLINE
  5
127
100
AcDbEntity
  8
Image
 62
7
100
AcDbSpline
 70
8
 71
3
 72
8
 73
4
 74
0
 40
0
 40
0
 40
0
 40
0
 40
1
 40
1
 40
1
 40
1
 10
96.285743
 20
124.474777
 30
0.0
 10
96.927535
 20
124.806660
 30
0.0
 10
97.208896
 20
124.806824
 30
0.0
 10
98.451778
 20
124.476100
 30
0.0
  0
SPLINE
  5
128
100
AcDbEntity
  8
Image
 62
7
100
AcDbSpline
 70
8
 71
3
 72
8
 73
4
 74
0
 40
0
 40
0
 40
0
 40
0
 40
1
 40
1
 40
1
 40
1
 10
98.451778
 20
124.476100
 30
0.0
 10
100.411481
 20
123.954532
 30
0.0
 10
103.029599
 20
123.969542
 30
0.0
 10
103.565476
 20
124.505421
 30
0.0
  0
SPLINE
  5
129
100
AcDbEntity
  8
Image
 62
7
100
AcDbSpline
 70
8
 71
3
 72
8
 73
4
 74
0
 40
0
 40
0
 40
0
 40
0
 40
1
 40
1
 40
1
 40
1
 10
103.565476
 20
124.505421
 30
0.0
 10
104.104689
 20
125.044634
 30
0.0
 10
104.095214
 20
125.906424
 30
0.0
 10
103.543357
 20
126.516209
 30
0.0
  0
SPLINE
  5
12a
100
AcDbEntity
  8
Image
 62
7
100
AcDbSpline
 70
8
 71
3
 72
8
 73
4
 74
0
 40
0
 40
0
 40
0
 40
0
 40
1
 40
1
 40
1
 40
1
 10
103.543357
 20
126.516209
 30
0.0
 10
102.980770
 20
127.137861
 30
0.0
 10
100.429534
 20
127.173964
 30
0.0
 10
98.457001
 20
126.588184
 30
0.0
  0
SPLINE
  5
12b
100
AcDbEntity
  8
Image
 62
7
100
AcDbSpline
 70
8
 71
3
 72
8
 73
4
 74
0
 40
0
 40
0
 40
0
 40
0
 40
1
 40
1
 40
1
 40
1
 10
98.457001
 20
126.588184
 30
0.0
 10
97.163398
 20
126.204025
 30
0.0
 10
97.014967
 20
126.208475
 30
0.0
 10
96.251559
 20
126.654330
 30
0.0
  0
SPLINE
  5
12c
100
AcDbEntity
  8
Image
 62
7
100
AcDbSpline
 70
8
 71
3
 72
8
 73
4
 74
0
 40
0
 40
0
 40
0
 40
0
 40
1
 40
1
 40
1
 40
1
 10
96.251559
 20
126.654330
 30
0.0
 10
95.224129
 20
127.254381
 30
0.0
 10
95.223306
 20
127.539017
 30
0.0
 10
96.247273
 20
128.137044
 30
0.0
  0
SPLINE
  5
12d
100
AcDbEntity
  8
Image
 62
7
100
AcDbSpline
 70
8
 71
3
 72
8
 73
4
 74
0
 40
0
 40
0
 40
0
 40
0
 40
1
 40
1
 40
1
 40
1
 10
96.247273
 20
128.137044
 30
0.0
 10
97.007109
 20
128.580814
 30
0.0
 10
97.166983
 20
128.585230
 30
0.0
 10
98.641321
 20
128.203190
 30
0.0
  0
SPLINE
  5
12e
100
AcDbEntity
  8
Image
 62
7
100
AcDbSpline
 70
8
 71
3
 72
8
 73
4
 74
0
 40
0
 40
0
 40
0
 40
0
 40
1
 40
1
 40
1
 40
1
 10
98.641321
 20
128.203190
 30
0.0
 10
101.080049
 20
127.571254
 30
0.0
 10
102.808069
 20
127.654926
 30
0.0
 10
103.596255
 20
128.443114
 30
0.0
  0
SPLINE
  5
12f
100
AcDbEntity
  8
Image
 62
7
100
AcDbSpline
 70
8
 71
3
 72
8
 73
4
 74
0
 40
0
 40
0
 40
0
 40
0
 40
1
 40
1
 40
1
 40
1
 10
103.596255
 20
128.443114
 30
0.0
 10
104.160640
 20
129.007500
 30
0.0
 10
104.205720
 20
129.179841
 30
0.0
 10
103.940951
 20
129.760943
 30
0.0
  0
SPLINE
  5
130
100
AcDbEntity
  8
Image
 62
7
100
AcDbSpline
 70
8
 71
3
 72
8
 73
4
 74
0
 40
0
 40
0
 40
0
 40
0
 40
1
 40
1
 40
1
 40
1
 10
103.940951
 20
129.760943
 30
0.0
 10
103.773420
 20
130.128637
 30
0.0
 10
103.386528
 20
130.510222
 30
0.0
 10
103.081188
 20
130.608914
 30
0.0
  0
SPLINE
  5
131
100
AcDbEntity
  8
Image
 62
7
100
AcDbSpline
 70
8
 71
3
 72
8
 73
4
 74
0
 40
0
 40
0
 40
0
 40
0
 40
1
 40
1
 40
1
 40
1
 10
103.081188
 20
130.608914
 30
0.0
 10
102.222752
 20
130.886380
 30
0.0
 10
100.031931
 20
130.749418
 30
0.0
 10
98.434160
 20
130.318402
 30
0.0
  0
SPLINE
  5
132
100
AcDbEntity
  8
Image
 62
7
100
AcDbSpline
 70
8
 71
3
 72
8
 73
4
 74
0
 40
0
 40
0
 40
0
 40
0
 40
1
 40
1
 40
1
 40
1
 10
98.434160
 20
130.318402
 30
0.0
 10
97.105065
 20
129.959865
 30
0.0
 10
96.923191
 20
129.966241
 30
0.0
 10
96.185202
 20
130.397250
 30
0.0
  0
SPLINE
  5
133
100
AcDbEntity
  8
Image
 62
7
100
AcDbSpline
 70
8
 71
3
 72
8
 73
4
 74
0
 40
0
 40
0
 40
0
 40
0
 40
1
 40
1
 40
1
 40
1
 10
96.185202
 20
130.397250
 30
0.0
 10
95.200253
 20
130.972489
 30
0.0
 10
95.188109
 20
131.163610
 30
0.0
 10
96.093531
 20
131.839608
 30
0.0
  0
SPLINE
  5
134
100
AcDbEntity
  8
Image
 62
7
100
AcDbSpline
 70
8
 71
3
 72
8
 73
4
 74
0
 40
0
 40
0
 40
0
 40
0
 40
1
 40
1
 40
1
 40
1
 10
96.093531
 20
131.839608
 30
0.0
 10
96.781154
 20
132.352992
 30
0.0
 10
96.856457
 20
132.356138
 30
0.0
 10
98.359849
 20
131.934307
 30
0.0
  0
SPLINE
  5
135
100
AcDbEntity
  8
Image
 62
7
100
AcDbSpline
 70
8
 71
3
 72
8
 73
4
 74
0
 40
0
 40
0
 40
0
 40
0
 40
1
 40
1
 40
1
 40
1
 10
98.359849
 20
131.934307
 30
0.0
 10
100.343144
 20
131.377825
 30
0.0
 10
102.617839
 20
131.366773
 30
0.0
 10
103.393198
 20
131.909860
 30
0.0
  0
SPLINE
  5
136
100
AcDbEntity
  8
Image
 62
7
100
AcDbSpline
 70
8
 71
3
 72
8
 73
4
 74
0
 40
0
 40
0
 40
0
 40
0
 40
1
 40
1
 40
1
 40
1
 10
103.393198
 20
131.909860
 30
0.0
 10
104.079027
 20
132.390235
 30
0.0
 10
104.162204
 20
133.395884
 30
0.0
 10
103.565463
 20
133.992625
 30
0.0
  0
SPLINE
  5
137
100
AcDbEntity
  8
Image
 62
7
100
AcDbSpline
 70
8
 71
3
 72
8
 73
4
 74
0
 40
0
 40
0
 40
0
 40
0
 40
1
 40
1
 40
1
 40
1
 10
103.565463
 20
133.992625
 30
0.0
 10
103.027742
 20
134.530349
 30
0.0
 10
100.409362
 20
134.542940
 30
0.0
 10
98.434160
 20
134.017311
 30
0.0
  0
SPLINE
  5
138
100
AcDbEntity
  8
Image
 62
7
100
AcDbSpline
 70
8
 71
3
 72
8
 73
4
 74
0
 40
0
 40
0
 40
0
 40
0
 40
1
 40
1
 40
1
 40
1
 10
98.434160
 20
134.017311
 30
0.0
 10
97.117948
 20
133.667042
 30
0.0
 10
96.918317
 20
133.673265
 30
0.0
 10
96.210594
 20
134.086597
 30
0.0
  0
SPLINE
  5
139
100
AcDbEntity
  8
Image
 62
7
100
AcDbSpline
 70
8
 71
3
 72
8
 73
4
 74
0
 40
0
 40
0
 40
0
 40
0
 40
1
 40
1
 40
1
 40
1
 10
96.210594
 20
134.086597
 30
0.0
 10
95.266484
 20
134.637986
 30
0.0
 10
95.253249
 20
134.916423
 30
0.0
 10
96.139688
 20
135.578244
 30
0.0
  0
SPLINE
  5
13a
100
AcDbEntity
  8
Image
 62
7
100
AcDbSpline
 70
8
 71
3
 72
8
 73
4
 74
0
 40
0
 40
0
 40
0
 40
0
 40
1
 40
1
 40
1
 40
1
 10
96.139688
 20
135.578244
 30
0.0
 10
96.796249
 20
136.068438
 30
0.0
 10
96.886152
 20
136.070806
 30
0.0
 10
98.652841
 20
135.644390
 30
0.0
  0
SPLINE
  5
13b
100
AcDbEntity
  8
Image
 62
7
100
AcDbSpline
 70
8
 71
3
 72
8
 73
4
 74
0
 40
0
 40
0
 40
0
 40
0
 40
1
 40
1
 40
1
 40
1
 10
98.652841
 20
135.644390
 30
0.0
 10
101.345127
 20
134.994573
 30
0.0
 10
102.799489
 20
135.054689
 30
0.0
 10
103.593413
 20
135.848614
 30
0.0
  0
SPLINE
  5
13c
100
AcDbEntity
  8
Image
 62
7
100
AcDbSpline
 70
8
 71
3
 72
8
 73
4
 74
0
 40
0
 40
0
 40
0
 40
0
 40
1
 40
1
 40
1
 40
1
 10
103.593413
 20
135.848614
 30
0.0
 10
104.452920
 20
136.708121
 30
0.0
 10
104.153713
 20
137.594697
 30
0.0
 10
102.857078
 20
138.030434
 30
0.0
  0
SPLINE
  5
13d
100
AcDbEntity
  8
Image
 62
7
100
AcDbSpline
 70
8
 71
3
 72
8
 73
4
 74
0
 40
0
 40
0
 40
0
 40
0
 40
1
 40
1
 40
1
 40
1
 10
102.857078
 20
138.030434
 30
0.0
 10
101.897505
 20
138.352903
 30
0.0
 10
99.236861
 20
138.135315
 30
0.0
 10
97.871732
 20
137.622735
 30
0.0
  0
SPLINE
  5
13e
100
AcDbEntity
  8
Image
 62
7
100
AcDbSpline
 70
8
 71
3
 72
8
 73
4
 74
0
 40
0
 40
0
 40
0
 40
0
 40
1
 40
1
 40
1
 40
1
 10
97.871732
 20
137.622735
 30
0.0
 10
97.403494
 20
137.446919
 30
0.0
 10
96.971075
 20
137.516690
 30
0.0
 10
96.242174
 20
137.885662
 30
0.0
  0
SPLINE
  5
13f
100
AcDbEntity
  8
Image
 62
7
100
AcDbSpline
 70
8
 71
3
 72
8
 73
4
 74
0
 40
0
 40
0
 40
0
 40
0
 40
1
 40
1
 40
1
 40
1
 10
96.242174
 20
137.885662
 30
0.0
 10
95.696471
 20
138.161900
 30
0.0
 10
95.249987
 20
138.501811
 30
0.0
 10
95.249987
 20
138.641018
 30
0.0
  0
SPLINE
  5
140
100
AcDbEntity
  8
Image
 62
7
100
AcDbSpline
 70
8
 71
3
 72
8
 73
4
 74
0
 40
0
 40
0
 40
0
 40
0
 40
1
 40
1
 40
1
 40
1
 10
95.249987
 20
138.641018
 30
0.0
 10
95.249987
 20
139.166200
 30
0.0
 10
96.610898
 20
139.753700
 30
0.0
 10
98.150945
 20
139.893344
 30
0.0
  0
LWPOLYLINE
  5
141
100
AcDbEntity
  8
Image
 62
7
100
AcDbPolyline
 90
5
 70
0
 10
101.996875
 20
111.389583
 30
0.0
 10
99.747917
 20
111.389583
 30
0.0
 10
99.747917
 20
116.792483
 30
0.0
 10
99.747917
 20
122.195381
 30
0.0
 10
98.018036
 20
122.380637
 30
0.0
  0
SPLINE
  5
142
100
AcDbEntity
  8
Image
 62
7
100
AcDbSpline
 70
8
 71
3
 72
8
 73
4
 74
0
 40
0
 40
0
 40
0
 40
0
 40
1
 40
1
 40
1
 40
1
 10
101.996875
 20
154.626305
 30
0.0
 10
103.233802
 20
156.848884
 30
0.0
 10
104.245833
 20
158.745481
 30
0.0
 10
104.245833
 20
158.840969
 30
0.0
  0
SPLINE
  5
143
100
AcDbEntity
  8
Image
 62
7
100
AcDbSpline
 70
8
 71
3
 72
8
 73
4
 74
0
 40
0
 40
0
 40
0
 40
0
 40
1
 40
1
 40
1
 40
1
 10
104.245833
 20
158.840969
 30
0.0
 10
104.245833
 20
158.936457
 30
0.0
 10
101.924115
 20
159.014583
 30
0.0
 10
99.086458
 20
159.014583
 30
0.0
  0
SPLINE
  5
144
100
AcDbEntity
  8
Image
 62
7
100
AcDbSpline
 70
8
 71
3
 72
8
 73
4
 74
0
 40
0
 40
0
 40
0
 40
0
 40
1
 40
1
 40
1
 40
1
 10
99.086458
 20
159.014583
 30
0.0
 10
96.248802
 20
159.014583
 30
0.0
 10
93.927083
 20
158.961664
 30
0.0
 10
93.927083
 20
158.896987
 30
0.0
  0
SPLINE
  5
145
100
AcDbEntity
  8
Image
 62
7
100
AcDbSpline
 70
8
 71
3
 72
8
 73
4
 74
0
 40
0
 40
0
 40
0
 40
0
 40
1
 40
1
 40
1
 40
1
 10
93.927083
 20
158.896987
 30
0.0
 10
93.927083
 20
158.832307
 30
0.0
 10
94.939115
 20
156.944618
 30
0.0
 10
96.176042
 20
154.702121
 30
0.0
  0
LWPOLYLINE
  5
146
100
AcDbEntity
  8
Image
 62
7
100
AcDbPolyline
 90
5
 70
0
 10
98.150945
 20
139.893344
 30
0.0
 10
99.747917
 20
140.038079
 30
0.0
 10
99.747917
 20
145.311667
 30
0.0
 10
99.747917
 20
150.585255
 30
0.0
 10
101.996875
 20
154.626305
 30
0.0
  0
SPLINE
  5
147
100
AcDbEntity
  8
Image
 62
7
100
AcDbSpline
 70
8
 71
3
 72
8
 73
4
 74
0
 40
0
 40
0
 40
0
 40
0
 40
1
 40
1
 40
1
 40
1
 10
97.697396
 20
141.021329
 30
0.0
 10
94.781346
 20
141.015402
 30
0.0
 10
93.069804
 20
138.768669
 30
0.0
 10
94.890405
 20
137.336586
 30
0.0
  0
LWPOLYLINE
  5
148
100
AcDbEntity
  8
Image
 62
7
100
AcDbPolyline
 90
5
 70
0
 10
96.176042
 20
154.702121
 30
0.0
 10
98.425000
 20
150.624852
 30
0.0
 10
98.425000
 20
145.823884
 30
0.0
 10
98.425000
 20
141.022917
 30
0.0
 10
97.697396
 20
141.021329
 30
0.0
  0
SPLINE
  5
149
100
AcDbEntity
  8
Image
 62
7
100
AcDbSpline
 70
8
 71
3
 72
8
 73
4
 74
0
 40
0
 40
0
 40
0
 40
0
 40
1
 40
1
 40
1
 40
1
 10
94.890405
 20
136.139391
 30
0.0
 10
94.014666
 20
135.327784
 30
0.0
 10
93.999188
 20
134.416705
 30
0.0
 10
94.847598
 20
133.619663
 30
0.0
  0
LWPOLYLINE
  5
14a
100
AcDbEntity
  8
Image
 62
7
100
AcDbPolyline
 90
3
 70
0
 10
94.890405
 20
137.336586
 30
0.0
 10
95.589140
 20
136.786959
 30
0.0
 10
94.890405
 20
136.139391
 30
0.0
  0
SPLINE
  5
14b
100
AcDbEntity
  8
Image
 62
7
100
AcDbSpline
 70
8
 71
3
 72
8
 73
4
 74
0
 40
0
 40
0
 40
0
 40
0
 40
1
 40
1
 40
1
 40
1
 10
94.847598
 20
132.395553
 30
0.0
 10
94.011552
 20
131.620731
 30
0.0
 10
94.014343
 20
130.785804
 30
0.0
 10
94.855932
 20
129.907385
 30
0.0
  0
LWPOLYLINE
  5
14c
100
AcDbEntity
  8
Image
 62
7
100
AcDbPolyline
 90
3
 70
0
 10
94.847598
 20
133.619663
 30
0.0
 10
95.503529
 20
133.003449
 30
0.0
 10
94.847598
 20
132.395553
 30
0.0
  0
SPLINE
  5
14d
100
AcDbEntity
  8
Image
 62
7
100
AcDbSpline
 70
8
 71
3
 72
8
 73
4
 74
0
 40
0
 40
0
 40
0
 40
0
 40
1
 40
1
 40
1
 40
1
 10
94.855932
 20
128.590016
 30
0.0
 10
94.009472
 20
127.794806
 30
0.0
 10
94.010893
 20
126.924353
 30
0.0
 10
94.859954
 20
126.137069
 30
0.0
  0
LWPOLYLINE
  5
14e
100
AcDbEntity
  8
Image
 62
7
100
AcDbPolyline
 90
3
 70
0
 10
94.855932
 20
129.907385
 30
0.0
 10
95.520187
 20
129.214052
 30
0.0
 10
94.855932
 20
128.590016
 30
0.0
  0
SPLINE
  5
14f
100
AcDbEntity
  8
Image
 62
7
100
AcDbSpline
 70
8
 71
3
 72
8
 73
4
 74
0
 40
0
 40
0
 40
0
 40
0
 40
1
 40
1
 40
1
 40
1
 10
94.859954
 20
124.889617
 30
0.0
 10
94.164388
 20
124.236168
 30
0.0
 10
94.008726
 20
123.338217
 30
0.0
 10
94.448553
 20
122.516395
 30
0.0
  0
SPLINE
  5
150
100
AcDbEntity
  8
Image
 62
7
100
AcDbSpline
 70
8
 71
3
 72
8
 73
4
 74
0
 40
0
 40
0
 40
0
 40
0
 40
1
 40
1
 40
1
 40
1
 10
94.448553
 20
122.516395
 30
0.0
 10
94.760973
 20
121.932631
 30
0.0
 10
96.557417
 20
121.179056
 30
0.0
 10
97.636626
 20
121.179056
 30
0.0
  0
LWPOLYLINE
  5
151
100
AcDbEntity
  8
Image
 62
7
100
AcDbPolyline
 90
3
 70
0
 10
94.859954
 20
126.137069
 30
0.0
 10
95.528217
 20
125.517421
 30
0.0
 10
94.859954
 20
124.889617
 30
0.0
  0
SPLINE
  5
152
100
AcDbEntity
  8
Image
 62
7
100
AcDbSpline
 70
8
 71
3
 72
8
 73
4
 74
0
 40
0
 40
0
 40
0
 40
0
 40
1
 40
1
 40
1
 40
1
 10
96.176063
 20
111.389472
 30
0.0
 10
94.103494
 20
111.389472
 30
0.0
 10
93.927105
 20
111.347970
 30
0.0
 10
93.927105
 20
110.860306
 30
0.0
  0
SPLINE
  5
153
100
AcDbEntity
  8
Image
 62
7
100
AcDbSpline
 70
8
 71
3
 72
8
 73
4
 74
0
 40
0
 40
0
 40
0
 40
0
 40
1
 40
1
 40
1
 40
1
 10
93.927105
 20
110.860306
 30
0.0
 10
93.927105
 20
110.349231
 30
0.0
 10
94.103494
 20
110.331139
 30
0.0
 10
99.086480
 20
110.331139
 30
0.0
  0
SPLINE
  5
154
100
AcDbEntity
  8
Image
 62
7
100
AcDbSpline
 70
8
 71
3
 72
8
 73
4
 74
0
 40
0
 40
0
 40
0
 40
0
 40
1
 40
1
 40
1
 40
1
 10
99.086480
 20
110.331139
 30
0.0
 10
104.069465
 20
110.331139
 30
0.0
 10
104.245855
 20
110.349236
 30
0.0
 10
104.245855
 20
110.860306
 30
0.0
  0
LWPOLYLINE
  5
155
100
AcDbEntity
  8
Image
 62
7
100
AcDbPolyline
 90
5
 70
0
 10
97.636626
 20
121.179056
 30
0.0
 10
98.425021
 20
121.179056
 30
0.0
 10
98.425021
 20
116.284264
 30
0.0
 10
98.425021
 20
111.389472
 30
0.0
 10
96.176063
 20
111.389472
 30
0.0
  0
SPLINE
  5
156
100
AcDbEntity
  8
Image
 62
7
100
AcDbSpline
 70
8
 71
3
 72
8
 73
4
 74
0
 40
0
 40
0
 40
0
 40
0
 40
1
 40
1
 40
1
 40
1
 10
100.012500
 20
125.398924
 30
0.0
 10
99.430890
 20
125.573250
 30
0.0
 10
99.499597
 20
125.621129
 30
0.0
 10
100.581682
 20
125.795548
 30
0.0
  0
SPLINE
  5
157
100
AcDbEntity
  8
Image
 62
7
100
AcDbSpline
 70
8
 71
3
 72
8
 73
4
 74
0
 40
0
 40
0
 40
0
 40
0
 40
1
 40
1
 40
1
 40
1
 10
100.581682
 20
125.795548
 30
0.0
 10
101.980127
 20
126.020962
 30
0.0
 10
103.232715
 20
125.771153
 30
0.0
 10
102.627147
 20
125.387627
 30
0.0
  0
SPLINE
  5
158
100
AcDbEntity
  8
Image
 62
7
100
AcDbSpline
 70
8
 71
3
 72
8
 73
4
 74
0
 40
0
 40
0
 40
0
 40
0
 40
1
 40
1
 40
1
 40
1
 10
102.627147
 20
125.387627
 30
0.0
 10
102.195667
 20
125.114352
 30
0.0
 10
100.943878
 20
125.119760
 30
0.0
 10
100.012500
 20
125.398924
 30
0.0
  0
LWPOLYLINE
  5
159
100
AcDbEntity
  8
Image
 62
7
100
AcDbPolyline
 90
2
 70
0
 10
104.245855
 20
110.860306
 30
0.0
 10
104.245833
 20
110.860417
 30
0.0
  0
LWPOLYLINE
  5
15a
100
AcDbEntity
  8
Image
 62
7
100
AcDbPolyline
 90
1
 70
1
 10
100.012500
 20
125.398924
 30
0.0
  0
SPLINE
  5
15b
100
AcDbEntity
  8
Image
 62
7
100
AcDbSpline
 70
8
 71
3
 72
8
 73
4
 74
0
 40
0
 40
0
 40
0
 40
0
 40
1
 40
1
 40
1
 40
1
 10
100.012500
 20
129.453936
 30
0.0
 10
100.951639
 20
129.716133
 30
0.0
 10
102.600249
 20
129.689286
 30
0.0
 10
102.773491
 20
129.408973
 30
0.0
  0
SPLINE
  5
15c
100
AcDbEntity
  8
Image
 62
7
100
AcDbSpline
 70
8
 71
3
 72
8
 73
4
 74
0
 40
0
 40
0
 40
0
 40
0
 40
1
 40
1
 40
1
 40
1
 10
102.773491
 20
129.408973
 30
0.0
 10
103.087384
 20
128.901082
 30
0.0
 10
101.731519
 20
128.737577
 30
0.0
 10
100.144792
 20
129.091978
 30
0.0
  0
LWPOLYLINE
  5
15d
100
AcDbEntity
  8
Image
 62
7
100
AcDbPolyline
 90
3
 70
0
 10
100.144792
 20
129.091978
 30
0.0
 10
99.351042
 20
129.269265
 30
0.0
 10
100.012500
 20
129.453936
 30
0.0
  0
SPLINE
  5
15e
100
AcDbEntity
  8
Image
 62
7
100
AcDbSpline
 70
8
 71
3
 72
8
 73
4
 74
0
 40
0
 40
0
 40
0
 40
0
 40
1
 40
1
 40
1
 40
1
 10
100.012500
 20
132.807258
 30
0.0
 10
99.430890
 20
132.981584
 30
0.0
 10
99.499597
 20
133.029463
 30
0.0
 10
100.581682
 20
133.203881
 30
0.0
  0
SPLINE
  5
15f
100
AcDbEntity
  8
Image
 62
7
100
AcDbSpline
 70
8
 71
3
 72
8
 73
4
 74
0
 40
0
 40
0
 40
0
 40
0
 40
1
 40
1
 40
1
 40
1
 10
100.581682
 20
133.203881
 30
0.0
 10
101.980127
 20
133.429296
 30
0.0
 10
103.232715
 20
133.179487
 30
0.0
 10
102.627147
 20
132.795960
 30
0.0
  0
SPLINE
  5
160
100
AcDbEntity
  8
Image
 62
7
100
AcDbSpline
 70
8
 71
3
 72
8
 73
4
 74
0
 40
0
 40
0
 40
0
 40
0
 40
1
 40
1
 40
1
 40
1
 10
102.627147
 20
132.795960
 30
0.0
 10
102.195667
 20
132.522685
 30
0.0
 10
100.943878
 20
132.528093
 30
0.0
 10
100.012500
 20
132.807258
 30
0.0
  0
LWPOLYLINE
  5
161
100
AcDbEntity
  8
Image
 62
7
100
AcDbPolyline
 90
1
 70
1
 10
100.144792
 20
129.091978
 30
0.0
  0
SPLINE
  5
162
100
AcDbEntity
  8
Image
 62
7
100
AcDbSpline
 70
8
 71
3
 72
8
 73
4
 74
0
 40
0
 40
0
 40
0
 40
0
 40
1
 40
1
 40
1
 40
1
 10
100.409375
 20
136.500333
 30
0.0
 10
99.449932
 20
136.649754
 30
0.0
 10
99.412848
 20
136.682993
 30
0.0
 10
100.012500
 20
136.856049
 30
0.0
  0
SPLINE
  5
163
100
AcDbEntity
  8
Image
 62
7
100
AcDbSpline
 70
8
 71
3
 72
8
 73
4
 74
0
 40
0
 40
0
 40
0
 40
0
 40
1
 40
1
 40
1
 40
1
 10
100.012500
 20
136.856049
 30
0.0
 10
100.936774
 20
137.122789
 30
0.0
 10
102.598231
 20
137.100881
 30
0.0
 10
102.772035
 20
136.819664
 30
0.0
  0
SPLINE
  5
164
100
AcDbEntity
  8
Image
 62
7
100
AcDbSpline
 70
8
 71
3
 72
8
 73
4
 74
0
 40
0
 40
0
 40
0
 40
0
 40
1
 40
1
 40
1
 40
1
 10
102.772035
 20
136.819664
 30
0.0
 10
102.897548
 20
136.616575
 30
0.0
 10
101.970157
 20
136.206630
 30
0.0
 10
101.600000
 20
136.301575
 30
0.0
  0
SPLINE
  5
165
100
AcDbEntity
  8
Image
 62
7
100
AcDbSpline
 70
8
 71
3
 72
8
 73
4
 74
0
 40
0
 40
0
 40
0
 40
0
 40
1
 40
1
 40
1
 40
1
 10
101.600000
 20
136.301575
 30
0.0
 10
101.527240
 20
136.320228
 30
0.0
 10
100.991458
 20
136.409679
 30
0.0
 10
100.409375
 20
136.500333
 30
0.0
  0
LWPOLYLINE
  5
166
100
AcDbEntity
  8
Image
 62
7
100
AcDbPolyline
 90
1
 70
1
 10
100.012500
 20
132.807258
 30
0.0
  0
SPLINE
  5
167
100
AcDbEntity
  8
Image
 62
7
100
AcDbSpline
 70
8
 71
3
 72
8
 73
4
 74
0
 40
0
 40
0
 40
0
 40
0
 40
1
 40
1
 40
1
 40
1
 10
97.234375
 20
155.204287
 30
0.0
 10
96.652292
 20
156.306946
 30
0.0
 10
96.136354
 20
157.317691
 30
0.0
 10
96.087848
 20
157.450393
 30
0.0
  0
SPLINE
  5
168
100
AcDbEntity
  8
Image
 62
7
100
AcDbSpline
 70
8
 71
3
 72
8
 73
4
 74
0
 40
0
 40
0
 40
0
 40
0
 40
1
 40
1
 40
1
 40
1
 10
96.087848
 20
157.450393
 30
0.0
 10
96.039339
 20
157.583092
 30
0.0
 10
96.545355
 20
157.691667
 30
0.0
 10
97.212327
 20
157.691667
 30
0.0
  0
LWPOLYLINE
  5
169
100
AcDbEntity
  8
Image
 62
7
100
AcDbPolyline
 90
1
 70
1
 10
100.409375
 20
136.500333
 30
0.0
  0
SPLINE
  5
16a
100
AcDbEntity
  8
Image
 62
7
100
AcDbSpline
 70
8
 71
3
 72
8
 73
4
 74
0
 40
0
 40
0
 40
0
 40
0
 40
1
 40
1
 40
1
 40
1
 10
98.425000
 20
155.442708
 30
0.0
 10
98.425000
 20
154.205781
 30
0.0
 10
98.395234
 20
153.195033
 30
0.0
 10
98.358854
 20
153.196602
 30
0.0
  0
SPLINE
  5
16b
100
AcDbEntity
  8
Image
 62
7
100
AcDbSpline
 70
8
 71
3
 72
8
 73
4
 74
0
 40
0
 40
0
 40
0
 40
0
 40
1
 40
1
 40
1
 40
1
 10
98.358854
 20
153.196602
 30
0.0
 10
98.322474
 20
153.198190
 30
0.0
 10
97.816458
 20
154.101631
 30
0.0
 10
97.234375
 20
155.204287
 30
0.0
  0
LWPOLYLINE
  5
16c
100
AcDbEntity
  8
Image
 62
7
100
AcDbPolyline
 90
3
 70
0
 10
97.212327
 20
157.691667
 30
0.0
 10
98.425000
 20
157.691667
 30
0.0
 10
98.425000
 20
155.442708
 30
0.0
  0
LWPOLYLINE
  5
16d
100
AcDbEntity
  8
Image
 62
7
100
AcDbPolyline
 90
1
 70
1
 10
97.234375
 20
155.204287
 30
0.0
  0
SPLINE
  5
16e
100
AcDbEntity
  8
Image
 62
7
100
AcDbSpline
 70
8
 71
3
 72
8
 73
4
 74
0
 40
0
 40
0
 40
0
 40
0
 40
1
 40
1
 40
1
 40
1
 10
101.494225
 20
156.170312
 30
0.0
 10
101.008624
 20
155.333568
 30
0.0
 10
100.421818
 20
154.291771
 30
0.0
 10
100.190210
 20
153.855208
 30
0.0
  0
SPLINE
  5
16f
100
AcDbEntity
  8
Image
 62
7
100
AcDbSpline
 70
8
 71
3
 72
8
 73
4
 74
0
 40
0
 40
0
 40
0
 40
0
 40
1
 40
1
 40
1
 40
1
 10
100.190210
 20
153.855208
 30
0.0
 10
99.776267
 20
153.074960
 30
0.0
 10
99.768922
 20
153.100839
 30
0.0
 10
99.758511
 20
155.376562
 30
0.0
  0
LWPOLYLINE
  5
170
100
AcDbEntity
  8
Image
 62
7
100
AcDbPolyline
 90
5
 70
0
 10
99.758511
 20
155.376562
 30
0.0
 10
99.747917
 20
157.691667
 30
0.0
 10
101.062525
 20
157.691667
 30
0.0
 10
102.377134
 20
157.691667
 30
0.0
 10
101.494225
 20
156.170312
 30
0.0
  0
LWPOLYLINE
  5
171
100
AcDbEntity
  8
Image
 62
7
100
AcDbPolyline
 90
1
 70
1
 10
99.758511
 20
155.376562
 30
0.0
  0
ENDSEC
  0
SECTION
  2
OBJECTS
  0
DICTIONARY
  5
C
330
0
100
AcDbDictionary
  3
ACAD_GROUP
350
D
  3
ACAD_MLINESTYLE
350
17
  0
DICTIONARY
  5
D
330
C
100
AcDbDictionary
  0
DICTIONARY
  5
1A
330
C
100
AcDbDictionary
  0
DICTIONARY
  5
17
330
C
100
AcDbDictionary
  3
STANDARD
350
18
  0
DICTIONARY
  5
19
330
C
100
AcDbDictionary
  0
ENDSEC
  0
EOF
