999
"DXF R12 Output" (www.mydxf.blogspot.com)
 0 
SECTION
 2 
HEADER
 9 
$ACADVER
 1 
AC1009
 9 
$EXTMIN
 10 
 0 
 20 
 0 
 9 
$EXTMAX
 10 
 8.5 
 20 
 11 
 0 
ENDSEC
 0 
SECTION
 2 
ENTITIES
0
LINE
8
Image
10
0.000000
20
77.611000
11
0.000000
21
155.222000
0
LINE
8
Image
10
0.000000
20
155.222000
11
77.611000
21
155.222000
0
LINE
8
Image
10
77.611000
20
155.222000
11
155.222000
21
155.222000
0
LINE
8
Image
10
155.222000
20
155.222000
11
155.222000
21
77.611000
0
LINE
8
Image
10
155.222000
20
77.611000
11
155.222000
21
-0.000100
0
LINE
8
Image
10
155.222000
20
-0.000100
11
77.611000
21
-0.000100
0
LINE
8
Image
10
77.611000
20
-0.000100
11
0.000000
21
-0.000100
0
LINE
8
Image
10
0.000000
20
-0.000100
11
0.000000
21
77.611000
0
LINE
8
Image
10
80.164300
20
21.628200
11
81.057952
21
22.213962
0
LINE
8
Image
10
81.057952
20
22.213962
11
82.566695
21
23.615086
0
LINE
8
Image
10
82.566695
20
23.615086
11
88.566120
21
29.995400
0
LINE
8
Image
10
88.566120
20
29.995400
11
97.083530
21
39.341050
0
LINE
8
Image
10
97.083530
20
39.341050
11
100.614000
21
43.179900
0
LINE
8
Image
10
100.614000
20
43.179900
11
119.778875
21
64.112963
0
LINE
8
Image
10
119.778875
20
64.112963
11
128.501203
21
73.885158
0
LINE
8
Image
10
128.501203
20
73.885158
11
132.433000
21
78.511800
0
LINE
8
Image
10
132.433000
20
78.511800
11
132.979702
21
79.855298
0
LINE
8
Image
10
132.979702
20
79.855298
11
133.199676
21
81.255247
0
LINE
8
Image
10
133.199676
20
81.255247
11
133.091018
21
82.663646
0
LINE
8
Image
10
133.091018
20
82.663646
11
132.651824
21
84.032490
0
LINE
8
Image
10
132.651824
20
84.032490
11
130.651898
21
86.657233
0
LINE
8
Image
10
130.651898
20
86.657233
11
126.374494
21
91.511370
0
LINE
8
Image
10
126.374494
20
91.511370
11
110.345000
21
109.048000
0
LINE
8
Image
10
110.345000
20
109.048000
11
98.072100
21
122.484000
0
LINE
8
Image
10
98.072100
20
122.484000
11
85.859062
21
135.764500
0
LINE
8
Image
10
85.859062
20
135.764500
11
82.254361
21
139.519875
0
LINE
8
Image
10
82.254361
20
139.519875
11
80.627100
21
141.023000
0
LINE
8
Image
10
80.627100
20
141.023000
11
79.603523
21
141.362426
0
LINE
8
Image
10
79.603523
20
141.362426
11
78.345856
21
141.497787
0
LINE
8
Image
10
78.345856
20
141.497787
11
77.062317
21
141.424033
0
LINE
8
Image
10
77.062317
20
141.424033
11
75.961120
21
141.136117
0
LINE
8
Image
10
75.961120
20
141.136117
11
74.334617
21
139.820263
0
LINE
8
Image
10
74.334617
20
139.820263
11
71.622330
21
137.043897
0
LINE
8
Image
10
71.622330
20
137.043897
11
32.786730
21
94.579697
0
LINE
8
Image
10
32.786730
20
94.579697
11
30.939640
21
92.568827
0
LINE
8
Image
10
30.939640
20
92.568827
11
26.080962
21
87.225693
0
LINE
8
Image
10
26.080962
20
87.225693
11
23.827320
21
84.384387
0
LINE
8
Image
10
23.827320
20
84.384387
11
23.421516
21
83.085023
0
LINE
8
Image
10
23.421516
20
83.085023
11
23.281804
21
81.434227
0
LINE
8
Image
10
23.281804
20
81.434227
11
23.409482
21
79.787721
0
LINE
8
Image
10
23.409482
20
79.787721
11
23.805849
21
78.501227
0
LINE
8
Image
10
23.805849
20
78.501227
11
26.327603
21
75.354092
0
LINE
8
Image
10
26.327603
20
75.354092
11
31.734109
21
69.421667
0
LINE
8
Image
10
31.734109
20
69.421667
11
35.000479
21
65.893897
0
LINE
8
Image
10
35.000479
20
65.893897
11
55.463779
21
43.492297
0
LINE
8
Image
10
55.463779
20
43.492297
11
71.564379
21
25.853397
0
LINE
8
Image
10
71.564379
20
25.853397
11
74.720844
21
22.515784
0
LINE
8
Image
10
74.720844
20
22.515784
11
75.538464
21
21.929554
0
LINE
8
Image
10
75.538464
20
21.929554
11
76.408899
21
21.569997
0
LINE
8
Image
10
76.408899
20
21.569997
11
77.402698
21
21.287069
0
LINE
8
Image
10
77.402698
20
21.287069
11
78.303662
21
21.201585
0
LINE
8
Image
10
78.303662
20
21.201585
11
79.196090
21
21.314853
0
LINE
8
Image
10
79.196090
20
21.314853
11
80.164279
21
21.628180
0
LINE
8
Image
10
80.164279
20
21.628180
11
80.164300
21
21.628200
0
LINE
8
Image
10
75.742800
20
23.651300
11
73.903300
21
24.694300
0
LINE
8
Image
10
73.903300
20
24.694300
11
61.290500
21
38.328700
0
LINE
8
Image
10
61.290500
20
38.328700
11
48.877800
21
51.893300
0
LINE
8
Image
10
48.877800
20
51.893300
11
46.143300
21
54.874500
0
LINE
8
Image
10
46.143300
20
54.874500
11
43.038860
21
58.285060
0
LINE
8
Image
10
43.038860
20
58.285060
11
30.118660
21
72.493985
0
LINE
8
Image
10
30.118660
20
72.493985
11
25.682160
21
77.696760
0
LINE
8
Image
10
25.682160
20
77.696760
11
25.313343
21
78.402388
0
LINE
8
Image
10
25.313343
20
78.402388
11
25.099749
21
79.117102
0
LINE
8
Image
10
25.099749
20
79.117102
11
24.978067
21
81.420960
0
LINE
8
Image
10
24.978067
20
81.420960
11
25.094380
21
83.653442
0
LINE
8
Image
10
25.094380
20
83.653442
11
25.542511
21
84.997430
0
LINE
8
Image
10
25.542511
20
84.997430
11
26.678296
21
86.489141
0
LINE
8
Image
10
26.678296
20
86.489141
11
29.037352
21
89.240266
0
LINE
8
Image
10
29.037352
20
89.240266
11
35.667411
21
96.520230
0
LINE
8
Image
10
35.667411
20
96.520230
11
40.067641
21
101.318000
0
LINE
8
Image
10
40.067641
20
101.318000
11
44.473301
21
106.115400
0
LINE
8
Image
10
44.473301
20
106.115400
11
47.303311
21
109.219840
0
LINE
8
Image
10
47.303311
20
109.219840
11
48.834941
21
110.913170
0
LINE
8
Image
10
48.834941
20
110.913170
11
70.054241
21
134.138570
0
LINE
8
Image
10
70.054241
20
134.138570
11
74.059411
21
138.320370
0
LINE
8
Image
10
74.059411
20
138.320370
11
75.415392
21
139.134713
0
LINE
8
Image
10
75.415392
20
139.134713
11
76.933466
21
139.588820
0
LINE
8
Image
10
76.933466
20
139.588820
11
78.572680
21
139.675674
0
LINE
8
Image
10
78.572680
20
139.675674
11
80.292081
21
139.388260
0
LINE
8
Image
10
80.292081
20
139.388260
11
81.480476
21
138.733857
0
LINE
8
Image
10
81.480476
20
138.733857
11
83.322020
21
137.137554
0
LINE
8
Image
10
83.322020
20
137.137554
11
86.045847
21
134.380873
0
LINE
8
Image
10
86.045847
20
134.380873
11
89.881091
21
130.245340
0
LINE
8
Image
10
89.881091
20
130.245340
11
94.390491
21
125.306460
0
LINE
8
Image
10
94.390491
20
125.306460
11
123.464091
21
93.444160
0
LINE
8
Image
10
123.464091
20
93.444160
11
127.501281
21
89.067400
0
LINE
8
Image
10
127.501281
20
89.067400
11
129.496214
21
86.836434
0
LINE
8
Image
10
129.496214
20
86.836434
11
130.593711
21
85.398510
0
LINE
8
Image
10
130.593711
20
85.398510
11
131.255215
21
83.585867
0
LINE
8
Image
10
131.255215
20
83.585867
11
131.517855
21
81.576119
0
LINE
8
Image
10
131.517855
20
81.576119
11
131.374555
21
79.605301
0
LINE
8
Image
10
131.374555
20
79.605301
11
130.818241
21
77.909450
0
LINE
8
Image
10
130.818241
20
77.909450
11
129.367460
21
75.886516
0
LINE
8
Image
10
129.367460
20
75.886516
11
126.475051
21
72.663110
0
LINE
8
Image
10
126.475051
20
72.663110
11
123.501391
21
69.417560
0
LINE
8
Image
10
123.501391
20
69.417560
11
120.662731
21
66.322020
0
LINE
8
Image
10
120.662731
20
66.322020
11
101.414531
21
45.287620
0
LINE
8
Image
10
101.414531
20
45.287620
11
88.652567
21
31.378895
0
LINE
8
Image
10
88.652567
20
31.378895
11
82.556731
21
24.900420
0
LINE
8
Image
10
82.556731
20
24.900420
11
80.969641
21
23.813065
0
LINE
8
Image
10
80.969641
20
23.813065
11
79.280347
21
23.237912
0
LINE
8
Image
10
79.280347
20
23.237912
11
77.525738
21
23.181727
0
LINE
8
Image
10
77.525738
20
23.181727
11
75.742701
21
23.651270
0
LINE
8
Image
10
75.742701
20
23.651270
11
75.742800
21
23.651300
0
LINE
8
Image
10
79.366150
20
24.847820
11
80.377215
21
25.259559
0
LINE
8
Image
10
80.377215
20
25.259559
11
81.577981
21
26.184331
0
LINE
8
Image
10
81.577981
20
26.184331
11
86.426820
21
31.285440
0
LINE
8
Image
10
86.426820
20
31.285440
11
95.276220
21
40.922050
0
LINE
8
Image
10
95.276220
20
40.922050
11
108.943720
21
55.870450
0
LINE
8
Image
10
108.943720
20
55.870450
11
123.613000
21
71.906200
0
LINE
8
Image
10
123.613000
20
71.906200
11
128.483970
21
77.392334
0
LINE
8
Image
10
128.483970
20
77.392334
11
129.417629
21
78.786409
0
LINE
8
Image
10
129.417629
20
78.786409
11
129.828440
21
79.896100
0
LINE
8
Image
10
129.828440
20
79.896100
11
130.001838
21
81.042250
0
LINE
8
Image
10
130.001838
20
81.042250
11
129.971658
21
82.168989
0
LINE
8
Image
10
129.971658
20
82.168989
11
129.739975
21
83.258743
0
LINE
8
Image
10
129.739975
20
83.258743
11
129.308866
21
84.293940
0
LINE
8
Image
10
129.308866
20
84.293940
11
124.029413
21
90.342950
0
LINE
8
Image
10
124.029413
20
90.342950
11
112.002966
21
103.626140
0
LINE
8
Image
10
112.002966
20
103.626140
11
86.977908
21
130.948142
0
LINE
8
Image
10
86.977908
20
130.948142
11
82.395010
21
135.815487
0
LINE
8
Image
10
82.395010
20
135.815487
11
80.744300
21
137.361000
0
LINE
8
Image
10
80.744300
20
137.361000
11
79.692467
21
137.810719
0
LINE
8
Image
10
79.692467
20
137.810719
11
78.390537
21
138.009000
0
LINE
8
Image
10
78.390537
20
138.009000
11
77.072989
21
137.944031
0
LINE
8
Image
10
77.072989
20
137.944031
11
75.974300
21
137.604000
0
LINE
8
Image
10
75.974300
20
137.604000
11
75.049053
21
136.882703
0
LINE
8
Image
10
75.049053
20
136.882703
11
73.521575
21
135.429875
0
LINE
8
Image
10
73.521575
20
135.429875
11
69.321200
21
130.987000
0
LINE
8
Image
10
69.321200
20
130.987000
11
42.777700
21
101.878000
0
LINE
8
Image
10
42.777700
20
101.878000
11
36.803500
21
95.386890
0
LINE
8
Image
10
36.803500
20
95.386890
11
30.075230
21
88.052740
0
LINE
8
Image
10
30.075230
20
88.052740
11
28.156576
21
85.827595
0
LINE
8
Image
10
28.156576
20
85.827595
11
27.010010
21
84.242740
0
LINE
8
Image
10
27.010010
20
84.242740
11
26.560140
21
82.945323
0
LINE
8
Image
10
26.560140
20
82.945323
11
26.401421
21
81.445339
0
LINE
8
Image
10
26.401421
20
81.445339
11
26.535595
21
79.955200
0
LINE
8
Image
10
26.535595
20
79.955200
11
26.964407
21
78.687320
0
LINE
8
Image
10
26.964407
20
78.687320
11
28.888128
21
76.280768
0
LINE
8
Image
10
28.888128
20
76.280768
11
32.737757
21
71.955040
0
LINE
8
Image
10
32.737757
20
71.955040
11
39.793307
21
64.216210
0
LINE
8
Image
10
39.793307
20
64.216210
11
74.722307
21
26.153210
0
LINE
8
Image
10
74.722307
20
26.153210
11
76.365506
21
25.106188
0
LINE
8
Image
10
76.365506
20
25.106188
11
77.290893
21
24.727913
0
LINE
8
Image
10
77.290893
20
24.727913
11
78.034427
21
24.566710
0
LINE
8
Image
10
78.034427
20
24.566710
11
79.366217
21
24.847391
0
LINE
8
Image
10
79.366217
20
24.847391
11
79.366150
21
24.847820
0
LINE
8
Image
10
76.496400
20
28.872990
11
76.131892
21
28.988233
0
LINE
8
Image
10
76.131892
20
28.988233
11
75.580880
21
29.381949
0
LINE
8
Image
10
75.580880
20
29.381949
11
71.969706
21
33.093632
0
LINE
8
Image
10
71.969706
20
33.093632
11
41.063300
21
66.835790
0
LINE
8
Image
10
41.063300
20
66.835790
11
33.900599
21
74.810503
0
LINE
8
Image
10
33.900599
20
74.810503
11
30.550500
21
78.802190
0
LINE
8
Image
10
30.550500
20
78.802190
11
30.069740
21
80.057495
0
LINE
8
Image
10
30.069740
20
80.057495
11
29.909487
21
81.420871
0
LINE
8
Image
10
29.909487
20
81.420871
11
30.069740
21
82.787211
0
LINE
8
Image
10
30.069740
20
82.787211
11
30.550500
21
84.051410
0
LINE
8
Image
10
30.550500
20
84.051410
11
32.499594
21
86.514790
0
LINE
8
Image
10
32.499594
20
86.514790
11
36.294010
21
90.798570
0
LINE
8
Image
10
36.294010
20
90.798570
11
53.650710
21
109.799270
0
LINE
8
Image
10
53.650710
20
109.799270
11
71.157498
21
128.904007
0
LINE
8
Image
10
71.157498
20
128.904007
11
74.564080
21
132.508253
0
LINE
8
Image
10
74.564080
20
132.508253
11
75.860210
21
133.712770
0
LINE
8
Image
10
75.860210
20
133.712770
11
76.915552
21
134.097981
0
LINE
8
Image
10
76.915552
20
134.097981
11
78.266836
21
134.203239
0
LINE
8
Image
10
78.266836
20
134.203239
11
79.607390
21
134.035645
0
LINE
8
Image
10
79.607390
20
134.035645
11
80.630540
21
133.602302
0
LINE
8
Image
10
80.630540
20
133.602302
11
84.169393
21
129.998955
0
LINE
8
Image
10
84.169393
20
129.998955
11
95.504640
21
117.678202
0
LINE
8
Image
10
95.504640
20
117.678202
11
119.877453
21
90.941977
0
LINE
8
Image
10
119.877453
20
90.941977
11
124.495173
21
85.730480
0
LINE
8
Image
10
124.495173
20
85.730480
11
125.934140
21
83.883202
0
LINE
8
Image
10
125.934140
20
83.883202
11
126.277720
21
82.726334
0
LINE
8
Image
10
126.277720
20
82.726334
11
126.420626
21
81.420972
0
LINE
8
Image
10
126.420626
20
81.420972
11
126.277720
21
80.119625
0
LINE
8
Image
10
126.277720
20
80.119625
11
125.934140
21
78.972412
0
LINE
8
Image
10
125.934140
20
78.972412
11
124.136330
21
76.729511
0
LINE
8
Image
10
124.136330
20
76.729511
11
119.503834
21
71.479081
0
LINE
8
Image
10
119.503834
20
71.479081
11
102.587640
21
52.907812
0
LINE
8
Image
10
102.587640
20
52.907812
11
87.770540
21
36.728512
0
LINE
8
Image
10
87.770540
20
36.728512
11
83.225416
21
31.867689
0
LINE
8
Image
10
83.225416
20
31.867689
11
81.642228
21
30.341092
0
LINE
8
Image
10
81.642228
20
30.341092
11
80.381166
21
29.321264
0
LINE
8
Image
10
80.381166
20
29.321264
11
79.339139
21
28.736374
0
LINE
8
Image
10
79.339139
20
28.736374
11
78.413053
21
28.514589
0
LINE
8
Image
10
78.413053
20
28.514589
11
77.499817
21
28.584079
0
LINE
8
Image
10
77.499817
20
28.584079
11
76.496340
21
28.873012
0
LINE
8
Image
10
76.496340
20
28.873012
11
76.496400
21
28.872990
0
LINE
8
Image
10
79.957600
20
31.397100
11
90.909400
21
43.301300
0
LINE
8
Image
10
90.909400
20
43.301300
11
112.536200
21
67.007900
0
LINE
8
Image
10
112.536200
20
67.007900
11
121.066285
21
76.502988
0
LINE
8
Image
10
121.066285
20
76.502988
11
123.339288
21
79.182017
0
LINE
8
Image
10
123.339288
20
79.182017
11
124.211700
21
80.398800
0
LINE
8
Image
10
124.211700
20
80.398800
11
124.383907
21
81.063679
0
LINE
8
Image
10
124.383907
20
81.063679
11
124.374576
21
81.725284
0
LINE
8
Image
10
124.374576
20
81.725284
11
124.097423
21
82.505339
0
LINE
8
Image
10
124.097423
20
82.505339
11
123.466163
21
83.525571
0
LINE
8
Image
10
123.466163
20
83.525571
11
120.796178
21
86.773473
0
LINE
8
Image
10
120.796178
20
86.773473
11
115.674340
21
92.442800
0
LINE
8
Image
10
115.674340
20
92.442800
11
100.310000
21
109.217000
0
LINE
8
Image
10
100.310000
20
109.217000
11
89.623100
21
120.932000
0
LINE
8
Image
10
89.623100
20
120.932000
11
79.960900
21
131.445000
0
LINE
8
Image
10
79.960900
20
131.445000
11
79.183012
21
131.899265
0
LINE
8
Image
10
79.183012
20
131.899265
11
78.240582
21
132.078938
0
LINE
8
Image
10
78.240582
20
132.078938
11
77.305263
21
131.976920
0
LINE
8
Image
10
77.305263
20
131.976920
11
76.548710
21
131.586111
0
LINE
8
Image
10
76.548710
20
131.586111
11
71.235230
21
125.871111
0
LINE
8
Image
10
71.235230
20
125.871111
11
65.030130
21
119.097781
0
LINE
8
Image
10
65.030130
20
119.097781
11
32.949400
21
83.860800
0
LINE
8
Image
10
32.949400
20
83.860800
11
32.323428
21
82.817187
0
LINE
8
Image
10
32.323428
20
82.817187
11
32.173289
21
81.416460
0
LINE
8
Image
10
32.173289
20
81.416460
11
32.126581
21
80.871484
0
LINE
8
Image
10
32.126581
20
80.871484
11
32.161819
21
80.400374
0
LINE
8
Image
10
32.161819
20
80.400374
11
32.542042
21
79.689319
0
LINE
8
Image
10
32.542042
20
79.689319
11
33.530293
21
78.424507
0
LINE
8
Image
10
33.530293
20
78.424507
11
38.383040
21
72.978366
0
LINE
8
Image
10
38.383040
20
72.978366
11
48.824389
21
61.551460
0
LINE
8
Image
10
48.824389
20
61.551460
11
65.334389
21
43.451860
0
LINE
8
Image
10
65.334389
20
43.451860
11
76.750089
21
31.123860
0
LINE
8
Image
10
76.750089
20
31.123860
11
77.455453
21
30.822220
0
LINE
8
Image
10
77.455453
20
30.822220
11
78.344466
21
30.777378
0
LINE
8
Image
10
78.344466
20
30.777378
11
79.238169
21
30.974089
0
LINE
8
Image
10
79.238169
20
30.974089
11
79.957599
21
31.397107
0
LINE
8
Image
10
79.957599
20
31.397107
11
79.957600
21
31.397100
0
LINE
8
Image
10
74.552490
20
45.121100
11
74.313881
21
45.487960
0
LINE
8
Image
10
74.313881
20
45.487960
11
74.270268
21
46.034001
0
LINE
8
Image
10
74.270268
20
46.034001
11
74.389376
21
46.422177
0
LINE
8
Image
10
74.389376
20
46.422177
11
74.842334
21
46.631289
0
LINE
8
Image
10
74.842334
20
46.631289
11
78.172968
21
46.786859
0
LINE
8
Image
10
78.172968
20
46.786859
11
81.370607
21
46.769190
0
LINE
8
Image
10
81.370607
20
46.769190
11
82.013064
21
46.637552
0
LINE
8
Image
10
82.013064
20
46.637552
11
82.324808
21
46.395095
0
LINE
8
Image
10
82.324808
20
46.395095
11
82.519966
21
45.911118
0
LINE
8
Image
10
82.519966
20
45.911118
11
82.387983
21
45.398654
0
LINE
8
Image
10
82.387983
20
45.398654
11
82.128997
21
45.118173
0
LINE
8
Image
10
82.128997
20
45.118173
11
81.563754
21
44.960182
0
LINE
8
Image
10
81.563754
20
44.960182
11
78.518363
21
44.877517
0
LINE
8
Image
10
78.518363
20
44.877517
11
75.873175
21
44.950808
0
LINE
8
Image
10
75.873175
20
44.950808
11
74.552493
21
45.121100
0
LINE
8
Image
10
74.552493
20
45.121100
11
74.552490
21
45.121100
0
LINE
8
Image
10
72.542320
20
48.387410
11
72.330790
21
48.825877
0
LINE
8
Image
10
72.330790
20
48.825877
11
72.299778
21
49.304631
0
LINE
8
Image
10
72.299778
20
49.304631
11
72.511166
21
49.582567
0
LINE
8
Image
10
72.511166
20
49.582567
11
73.291053
21
49.744959
0
LINE
8
Image
10
73.291053
20
49.744959
11
78.236768
21
49.888320
0
LINE
8
Image
10
78.236768
20
49.888320
11
83.277610
21
49.874288
0
LINE
8
Image
10
83.277610
20
49.874288
11
84.073918
21
49.718785
0
LINE
8
Image
10
84.073918
20
49.718785
11
84.370858
21
49.414029
0
LINE
8
Image
10
84.370858
20
49.414029
11
84.506774
21
48.886653
0
LINE
8
Image
10
84.506774
20
48.886653
11
84.222562
21
48.420568
0
LINE
8
Image
10
84.222562
20
48.420568
11
83.560312
21
48.211496
0
LINE
8
Image
10
83.560312
20
48.211496
11
82.203901
21
48.059651
0
LINE
8
Image
10
82.203901
20
48.059651
11
78.341047
21
47.930289
0
LINE
8
Image
10
78.341047
20
47.930289
11
74.498900
21
48.037777
0
LINE
8
Image
10
74.498900
20
48.037777
11
73.168374
21
48.181995
0
LINE
8
Image
10
73.168374
20
48.181995
11
72.542362
21
48.387410
0
LINE
8
Image
10
72.542362
20
48.387410
11
72.542320
21
48.387410
0
LINE
8
Image
10
70.871600
20
51.865470
11
70.745058
21
52.362826
0
LINE
8
Image
10
70.745058
20
52.362826
11
70.875692
21
52.853247
0
LINE
8
Image
10
70.875692
20
52.853247
11
71.225751
21
53.115060
0
LINE
8
Image
10
71.225751
20
53.115060
11
72.231937
21
53.261706
0
LINE
8
Image
10
72.231937
20
53.261706
11
78.166400
21
53.339900
0
LINE
8
Image
10
78.166400
20
53.339900
11
85.631260
21
53.168594
0
LINE
8
Image
10
85.631260
20
53.168594
11
85.946542
21
52.858092
0
LINE
8
Image
10
85.946542
20
52.858092
11
86.077676
21
52.352123
0
LINE
8
Image
10
86.077676
20
52.352123
11
85.946542
21
51.846153
0
LINE
8
Image
10
85.946542
20
51.846153
11
85.631260
21
51.535652
0
LINE
8
Image
10
85.631260
20
51.535652
11
78.162300
21
51.364300
0
LINE
8
Image
10
78.162300
20
51.364300
11
72.194811
21
51.442586
0
LINE
8
Image
10
72.194811
20
51.442586
11
71.209090
21
51.593327
0
LINE
8
Image
10
71.209090
20
51.593327
11
70.871540
21
51.865475
0
LINE
8
Image
10
70.871540
20
51.865475
11
70.871600
21
51.865470
0
LINE
8
Image
10
69.310170
20
54.625510
11
69.023189
21
55.093588
0
LINE
8
Image
10
69.023189
20
55.093588
11
69.154900
21
55.617221
0
LINE
8
Image
10
69.154900
20
55.617221
11
69.514235
21
55.922065
0
LINE
8
Image
10
69.514235
20
55.922065
11
70.677268
21
56.084942
0
LINE
8
Image
10
70.677268
20
56.084942
11
78.433110
21
56.162065
0
LINE
8
Image
10
78.433110
20
56.162065
11
85.936000
21
56.085087
0
LINE
8
Image
10
85.936000
20
56.085087
11
87.296411
21
55.949749
0
LINE
8
Image
10
87.296411
20
55.949749
11
87.790700
21
55.715076
0
LINE
8
Image
10
87.790700
20
55.715076
11
88.009530
21
55.262788
0
LINE
8
Image
10
88.009530
20
55.262788
11
87.865170
21
54.797855
0
LINE
8
Image
10
87.865170
20
54.797855
11
87.434098
21
54.544925
0
LINE
8
Image
10
87.434098
20
54.544925
11
86.147386
21
54.392955
0
LINE
8
Image
10
86.147386
20
54.392955
11
78.662860
21
54.253135
0
LINE
8
Image
10
78.662860
20
54.253135
11
71.203394
21
54.267787
0
LINE
8
Image
10
71.203394
20
54.267787
11
69.838133
21
54.392730
0
LINE
8
Image
10
69.838133
20
54.392730
11
69.310180
21
54.625510
0
LINE
8
Image
10
69.310180
20
54.625510
11
69.310170
21
54.625510
0
LINE
8
Image
10
67.149220
20
58.302390
11
66.930421
21
58.754680
0
LINE
8
Image
10
66.930421
20
58.754680
11
67.074544
21
59.219612
0
LINE
8
Image
10
67.074544
20
59.219612
11
67.403690
21
59.466566
0
LINE
8
Image
10
67.403690
20
59.466566
11
68.200585
21
59.620178
0
LINE
8
Image
10
68.200585
20
59.620178
11
72.349844
21
59.766911
0
LINE
8
Image
10
72.349844
20
59.766911
11
77.328800
21
59.844000
0
LINE
8
Image
10
77.328800
20
59.844000
11
77.328800
21
62.823200
0
LINE
8
Image
10
77.328800
20
62.823200
11
77.328800
21
65.802500
0
LINE
8
Image
10
77.328800
20
65.802500
11
76.540308
21
65.629317
0
LINE
8
Image
10
76.540308
20
65.629317
11
75.252195
21
65.590097
0
LINE
8
Image
10
75.252195
20
65.590097
11
73.262488
21
65.738994
0
LINE
8
Image
10
73.262488
20
65.738994
11
71.768126
21
65.977127
0
LINE
8
Image
10
71.768126
20
65.977127
11
70.472920
21
66.329264
0
LINE
8
Image
10
70.472920
20
66.329264
11
69.376937
21
66.795353
0
LINE
8
Image
10
69.376937
20
66.795353
11
68.480240
21
67.375341
0
LINE
8
Image
10
68.480240
20
67.375341
11
67.782897
21
68.069177
0
LINE
8
Image
10
67.782897
20
68.069177
11
67.284972
21
68.876807
0
LINE
8
Image
10
67.284972
20
68.876807
11
66.986531
21
69.798180
0
LINE
8
Image
10
66.986531
20
69.798180
11
66.887638
21
70.833244
0
LINE
8
Image
10
66.887638
20
70.833244
11
67.036267
21
71.992783
0
LINE
8
Image
10
67.036267
20
71.992783
11
67.416062
21
72.972454
0
LINE
8
Image
10
67.416062
20
72.972454
11
67.783360
21
73.780358
0
LINE
8
Image
10
67.783360
20
73.780358
11
67.550346
21
74.374844
0
LINE
8
Image
10
67.550346
20
74.374844
11
66.921091
21
75.689117
0
LINE
8
Image
10
66.921091
20
75.689117
11
66.727606
21
77.177442
0
LINE
8
Image
10
66.727606
20
77.177442
11
66.966767
21
78.637944
0
LINE
8
Image
10
66.966767
20
78.637944
11
67.635447
21
79.868754
0
LINE
8
Image
10
67.635447
20
79.868754
11
68.313926
21
80.675079
0
LINE
8
Image
10
68.313926
20
80.675079
11
67.742421
21
81.612471
0
LINE
8
Image
10
67.742421
20
81.612471
11
67.269758
21
82.791486
0
LINE
8
Image
10
67.269758
20
82.791486
11
67.144316
21
84.088115
0
LINE
8
Image
10
67.144316
20
84.088115
11
67.360030
21
85.331739
0
LINE
8
Image
10
67.360030
20
85.331739
11
67.910837
21
86.351741
0
LINE
8
Image
10
67.910837
20
86.351741
11
68.652872
21
87.233597
0
LINE
8
Image
10
68.652872
20
87.233597
11
68.056291
21
87.868628
0
LINE
8
Image
10
68.056291
20
87.868628
11
67.609143
21
88.522566
0
LINE
8
Image
10
67.609143
20
88.522566
11
67.314185
21
89.323642
0
LINE
8
Image
10
67.314185
20
89.323642
11
67.195366
21
90.176151
0
LINE
8
Image
10
67.195366
20
90.176151
11
67.276633
21
90.984388
0
LINE
8
Image
10
67.276633
20
90.984388
11
67.569728
21
91.709993
0
LINE
8
Image
10
67.569728
20
91.709993
11
68.068287
21
92.407456
0
LINE
8
Image
10
68.068287
20
92.407456
11
69.614771
21
93.676434
0
LINE
8
Image
10
69.614771
20
93.676434
11
71.782033
21
94.708272
0
LINE
8
Image
10
71.782033
20
94.708272
11
74.436023
21
95.419918
0
LINE
8
Image
10
74.436023
20
95.419918
11
76.482133
21
95.795668
0
LINE
8
Image
10
76.482133
20
95.795668
11
76.482200
21
99.790500
0
LINE
8
Image
10
76.482200
20
99.790500
11
76.482200
21
103.785000
0
LINE
8
Image
10
76.482200
20
103.785000
11
72.248800
21
109.361000
0
LINE
8
Image
10
72.248800
20
109.361000
11
68.015470
21
115.162530
0
LINE
8
Image
10
68.015470
20
115.162530
11
68.415040
21
115.788021
0
LINE
8
Image
10
68.415040
20
115.788021
11
68.952302
21
115.985809
0
LINE
8
Image
10
68.952302
20
115.985809
11
70.344703
21
116.088066
0
LINE
8
Image
10
70.344703
20
116.088066
11
77.375590
21
116.056304
0
LINE
8
Image
10
77.375590
20
116.056304
11
85.118977
21
115.790826
0
LINE
8
Image
10
85.118977
20
115.790826
11
86.360521
21
115.502374
0
LINE
8
Image
10
86.360521
20
115.502374
11
86.584118
21
115.290145
0
LINE
8
Image
10
86.584118
20
115.290145
11
86.642120
21
115.021504
0
LINE
8
Image
10
86.642120
20
115.021504
11
85.442791
21
113.171937
0
LINE
8
Image
10
85.442791
20
113.171937
11
82.559300
21
109.199954
0
LINE
8
Image
10
82.559300
20
109.199954
11
78.476500
21
103.716000
0
LINE
8
Image
10
78.476500
20
103.716000
11
78.396600
21
98.927400
0
LINE
8
Image
10
78.396600
20
98.927400
11
78.316600
21
94.138300
0
LINE
8
Image
10
78.316600
20
94.138300
11
77.046600
21
93.917100
0
LINE
8
Image
10
77.046600
20
93.917100
11
73.542849
21
93.222882
0
LINE
8
Image
10
73.542849
20
93.222882
11
71.501170
21
92.569610
0
LINE
8
Image
10
71.501170
20
92.569610
11
70.075717
21
91.746143
0
LINE
8
Image
10
70.075717
20
91.746143
11
69.303011
21
90.826991
0
LINE
8
Image
10
69.303011
20
90.826991
11
69.169593
21
90.349202
0
LINE
8
Image
10
69.169593
20
90.349202
11
69.209147
21
89.868692
0
LINE
8
Image
10
69.209147
20
89.868692
11
69.424935
21
89.392529
0
LINE
8
Image
10
69.424935
20
89.392529
11
69.820220
21
88.927780
0
LINE
8
Image
10
69.820220
20
88.927780
11
70.229809
21
88.575322
0
LINE
8
Image
10
70.229809
20
88.575322
11
70.585417
21
88.438533
0
LINE
8
Image
10
70.585417
20
88.438533
11
71.841580
21
88.749678
0
LINE
8
Image
10
71.841580
20
88.749678
11
73.733035
21
89.235995
0
LINE
8
Image
10
73.733035
20
89.235995
11
76.019431
21
89.553551
0
LINE
8
Image
10
76.019431
20
89.553551
11
78.646712
21
89.697272
0
LINE
8
Image
10
78.646712
20
89.697272
11
81.560820
21
89.662085
0
LINE
8
Image
10
81.560820
20
89.662085
11
84.169401
21
89.505978
0
LINE
8
Image
10
84.169401
20
89.505978
11
85.976716
21
89.260676
0
LINE
8
Image
10
85.976716
20
89.260676
11
87.230166
21
88.875194
0
LINE
8
Image
10
87.230166
20
88.875194
11
88.177150
21
88.298545
0
LINE
8
Image
10
88.177150
20
88.298545
11
88.752796
21
87.645768
0
LINE
8
Image
10
88.752796
20
87.645768
11
88.844808
21
86.830135
0
LINE
8
Image
10
88.844808
20
86.830135
11
88.684636
21
86.259476
0
LINE
8
Image
10
88.684636
20
86.259476
11
88.331842
21
85.754154
0
LINE
8
Image
10
88.331842
20
85.754154
11
87.103866
21
84.942310
0
LINE
8
Image
10
87.103866
20
84.942310
11
85.271835
21
84.400177
0
LINE
8
Image
10
85.271835
20
84.400177
11
82.946706
21
84.133330
0
LINE
8
Image
10
82.946706
20
84.133330
11
80.239433
21
84.147343
0
LINE
8
Image
10
80.239433
20
84.147343
11
77.260972
21
84.447791
0
LINE
8
Image
10
77.260972
20
84.447791
11
74.122278
21
85.040247
0
LINE
8
Image
10
74.122278
20
85.040247
11
70.934308
21
85.930287
0
LINE
8
Image
10
70.934308
20
85.930287
11
70.435576
21
85.961371
0
LINE
8
Image
10
70.435576
20
85.961371
11
69.988980
21
85.750085
0
LINE
8
Image
10
69.988980
20
85.750085
11
69.614832
21
85.348916
0
LINE
8
Image
10
69.614832
20
85.348916
11
69.333446
21
84.810353
0
LINE
8
Image
10
69.333446
20
84.810353
11
69.130210
21
83.531001
0
LINE
8
Image
10
69.130210
20
83.531001
11
69.248987
21
82.895189
0
LINE
8
Image
10
69.248987
20
82.895189
11
69.541778
21
82.331937
0
LINE
8
Image
10
69.541778
20
82.331937
11
70.000979
21
81.982971
0
LINE
8
Image
10
70.000979
20
81.982971
11
70.725668
21
82.137610
0
LINE
8
Image
10
70.725668
20
82.137610
11
72.058988
21
82.524131
0
LINE
8
Image
10
72.058988
20
82.524131
11
73.766697
21
82.838056
0
LINE
8
Image
10
73.766697
20
82.838056
11
77.834963
21
83.224561
0
LINE
8
Image
10
77.834963
20
83.224561
11
81.989832
21
83.250003
0
LINE
8
Image
10
81.989832
20
83.250003
11
83.805794
21
83.112600
0
LINE
8
Image
10
83.805794
20
83.112600
11
85.290668
21
82.867261
0
LINE
8
Image
10
85.290668
20
82.867261
11
86.753647
21
82.443472
0
LINE
8
Image
10
86.753647
20
82.443472
11
87.698141
21
81.961469
0
LINE
8
Image
10
87.698141
20
81.961469
11
88.186592
21
81.374674
0
LINE
8
Image
10
88.186592
20
81.374674
11
88.281448
21
80.636511
0
LINE
8
Image
10
88.281448
20
80.636511
11
88.043674
21
79.930886
0
LINE
8
Image
10
88.043674
20
79.930886
11
87.486338
21
79.304281
0
LINE
8
Image
10
87.486338
20
79.304281
11
86.625244
21
78.761694
0
LINE
8
Image
10
86.625244
20
78.761694
11
85.476197
21
78.308126
0
LINE
8
Image
10
85.476197
20
78.308126
11
82.377453
21
77.688044
0
LINE
8
Image
10
82.377453
20
77.688044
11
78.316538
21
77.484031
0
LINE
8
Image
10
78.316538
20
77.484031
11
75.892125
21
77.548537
0
LINE
8
Image
10
75.892125
20
77.548537
11
74.044347
21
77.755223
0
LINE
8
Image
10
74.044347
20
77.755223
11
72.479767
21
78.156359
0
LINE
8
Image
10
72.479767
20
78.156359
11
70.904948
21
78.804211
0
LINE
8
Image
10
70.904948
20
78.804211
11
69.792484
21
79.230456
0
LINE
8
Image
10
69.792484
20
79.230456
11
69.530455
21
79.138195
0
LINE
8
Image
10
69.530455
20
79.138195
11
69.275018
21
78.847363
0
LINE
8
Image
10
69.275018
20
78.847363
11
68.696181
21
77.696533
0
LINE
8
Image
10
68.696181
20
77.696533
11
68.681305
21
77.016963
0
LINE
8
Image
10
68.681305
20
77.016963
11
68.844408
21
76.144049
0
LINE
8
Image
10
68.844408
20
76.144049
11
69.103822
21
75.391901
0
LINE
8
Image
10
69.103822
20
75.391901
11
69.377877
21
75.074633
0
LINE
8
Image
10
69.377877
20
75.074633
11
71.402097
21
75.679045
0
LINE
8
Image
10
71.402097
20
75.679045
11
74.047764
21
76.183938
0
LINE
8
Image
10
74.047764
20
76.183938
11
77.675011
21
76.439451
0
LINE
8
Image
10
77.675011
20
76.439451
11
81.511551
21
76.421048
0
LINE
8
Image
10
81.511551
20
76.421048
11
84.785097
21
76.104198
0
LINE
8
Image
10
84.785097
20
76.104198
11
86.610276
21
75.677774
0
LINE
8
Image
10
86.610276
20
75.677774
11
87.833291
21
75.134911
0
LINE
8
Image
10
87.833291
20
75.134911
11
88.457526
21
74.473401
0
LINE
8
Image
10
88.457526
20
74.473401
11
88.486367
21
73.691038
0
LINE
8
Image
10
88.486367
20
73.691038
11
88.223902
21
73.262404
0
LINE
8
Image
10
88.223902
20
73.262404
11
87.734290
21
72.863840
0
LINE
8
Image
10
87.734290
20
72.863840
11
86.173838
21
72.167273
0
LINE
8
Image
10
86.173838
20
72.167273
11
84.005429
21
71.622042
0
LINE
8
Image
10
84.005429
20
71.622042
11
81.429485
21
71.248853
0
LINE
8
Image
10
81.429485
20
71.248853
11
78.646427
21
71.068409
0
LINE
8
Image
10
78.646427
20
71.068409
11
75.856674
21
71.101417
0
LINE
8
Image
10
75.856674
20
71.101417
11
73.260647
21
71.368582
0
LINE
8
Image
10
73.260647
20
71.368582
11
71.058767
21
71.890608
0
LINE
8
Image
10
71.058767
20
71.890608
11
69.922780
21
72.208234
0
LINE
8
Image
10
69.922780
20
72.208234
11
69.255796
21
72.166801
0
LINE
8
Image
10
69.255796
20
72.166801
11
68.941156
21
71.706719
0
LINE
8
Image
10
68.941156
20
71.706719
11
68.862200
21
70.768400
0
LINE
8
Image
10
68.862200
20
70.768400
11
68.954162
21
69.999219
0
LINE
8
Image
10
68.954162
20
69.999219
11
69.237973
21
69.348369
0
LINE
8
Image
10
69.237973
20
69.348369
11
69.725524
21
68.810320
0
LINE
8
Image
10
69.725524
20
68.810320
11
70.428705
21
68.379544
0
LINE
8
Image
10
70.428705
20
68.379544
11
71.359406
21
68.050510
0
LINE
8
Image
10
71.359406
20
68.050510
11
72.529517
21
67.817690
0
LINE
8
Image
10
72.529517
20
67.817690
11
75.635530
21
67.618570
0
LINE
8
Image
10
75.635530
20
67.618570
11
77.832010
21
67.532813
0
LINE
8
Image
10
77.832010
20
67.532813
11
78.951640
21
67.363794
0
LINE
8
Image
10
78.951640
20
67.363794
11
79.113172
21
67.056165
0
LINE
8
Image
10
79.113172
20
67.056165
11
79.222616
21
66.343050
0
LINE
8
Image
10
79.222616
20
66.343050
11
79.304418
21
63.489754
0
LINE
8
Image
10
79.304418
20
63.489754
11
79.304400
21
59.844000
0
LINE
8
Image
10
79.304400
20
59.844000
11
84.283410
21
59.766931
0
LINE
8
Image
10
84.283410
20
59.766931
11
88.432666
21
59.620198
0
LINE
8
Image
10
88.432666
20
59.620198
11
89.229561
21
59.466586
0
LINE
8
Image
10
89.229561
20
59.466586
11
89.558710
21
59.219632
0
LINE
8
Image
10
89.558710
20
59.219632
11
89.702833
21
58.754701
0
LINE
8
Image
10
89.702833
20
58.754701
11
89.484034
21
58.302411
0
LINE
8
Image
10
89.484034
20
58.302411
11
88.938175
21
58.066511
0
LINE
8
Image
10
88.938175
20
58.066511
11
87.342767
21
57.931301
0
LINE
8
Image
10
87.342767
20
57.931301
11
78.316600
21
57.855400
0
LINE
8
Image
10
78.316600
20
57.855400
11
69.290445
21
57.931300
0
LINE
8
Image
10
69.290445
20
57.931300
11
67.695042
21
58.066504
0
LINE
8
Image
10
67.695042
20
58.066504
11
67.149200
21
58.302389
0
LINE
8
Image
10
67.149200
20
58.302389
11
67.149220
21
58.302390
0
LINE
8
Image
10
82.973300
20
73.419500
11
85.050100
21
73.948378
0
LINE
8
Image
10
85.050100
20
73.948378
11
85.008083
21
74.071067
0
LINE
8
Image
10
85.008083
20
74.071067
11
84.651401
21
74.192514
0
LINE
8
Image
10
84.651401
20
74.192514
11
83.186582
21
74.411756
0
LINE
8
Image
10
83.186582
20
74.411756
11
78.598860
21
74.616127
0
LINE
8
Image
10
78.598860
20
74.616127
11
76.027212
21
74.505522
0
LINE
8
Image
10
76.027212
20
74.505522
11
73.776515
21
74.253695
0
LINE
8
Image
10
73.776515
20
74.253695
11
72.304311
21
73.931223
0
LINE
8
Image
10
72.304311
20
73.931223
11
72.003125
21
73.765552
0
LINE
8
Image
10
72.003125
20
73.765552
11
72.068140
21
73.608687
0
LINE
8
Image
10
72.068140
20
73.608687
11
73.780118
21
73.159859
0
LINE
8
Image
10
73.780118
20
73.159859
11
76.511645
21
72.972761
0
LINE
8
Image
10
76.511645
20
72.972761
11
79.747719
21
73.056329
0
LINE
8
Image
10
79.747719
20
73.056329
11
82.973340
21
73.419497
0
LINE
8
Image
10
82.973340
20
73.419497
11
82.973300
21
73.419500
0
LINE
8
Image
10
82.286468
20
79.601370
11
84.918792
21
80.213395
0
LINE
8
Image
10
84.918792
20
80.213395
11
85.534162
21
80.490819
0
LINE
8
Image
10
85.534162
20
80.490819
11
85.609838
21
80.724680
0
LINE
8
Image
10
85.609838
20
80.724680
11
84.767634
21
80.990417
0
LINE
8
Image
10
84.767634
20
80.990417
11
83.078093
21
81.263239
0
LINE
8
Image
10
83.078093
20
81.263239
11
79.213438
21
81.561197
0
LINE
8
Image
10
79.213438
20
81.561197
11
75.241588
21
81.159161
0
LINE
8
Image
10
75.241588
20
81.159161
11
73.247105
21
80.825541
0
LINE
8
Image
10
73.247105
20
80.825541
11
72.274408
21
80.552827
0
LINE
8
Image
10
72.274408
20
80.552827
11
72.234945
21
80.377888
0
LINE
8
Image
10
72.234945
20
80.377888
11
72.515232
21
80.199320
0
LINE
8
Image
10
72.515232
20
80.199320
11
74.258148
21
79.739878
0
LINE
8
Image
10
74.258148
20
79.739878
11
76.122518
21
79.460874
0
LINE
8
Image
10
76.122518
20
79.460874
11
78.250832
21
79.341876
0
LINE
8
Image
10
78.250832
20
79.341876
11
80.389883
21
79.387252
0
LINE
8
Image
10
80.389883
20
79.387252
11
82.286468
21
79.601369
0
LINE
8
Image
10
82.286468
20
79.601369
11
82.286468
21
79.601370
0
LINE
8
Image
10
85.388328
20
86.393380
11
86.273854
21
86.681872
0
LINE
8
Image
10
86.273854
20
86.681872
11
86.642200
21
86.932100
0
LINE
8
Image
10
86.642200
20
86.932100
11
86.160285
21
87.213792
0
LINE
8
Image
10
86.160285
20
87.213792
11
84.878014
21
87.442175
0
LINE
8
Image
10
84.878014
20
87.442175
11
80.893237
21
87.710596
0
LINE
8
Image
10
80.893237
20
87.710596
11
76.649542
21
87.680538
0
LINE
8
Image
10
76.649542
20
87.680538
11
75.043622
21
87.535820
0
LINE
8
Image
10
75.043622
20
87.535820
11
74.108600
21
87.295173
0
LINE
8
Image
10
74.108600
20
87.295173
11
73.965772
21
87.143158
0
LINE
8
Image
10
73.965772
20
87.143158
11
74.062434
21
86.993785
0
LINE
8
Image
10
74.062434
20
86.993785
11
74.865843
21
86.711633
0
LINE
8
Image
10
74.865843
20
86.711633
11
78.154319
21
86.274369
0
LINE
8
Image
10
78.154319
20
86.274369
11
82.239885
21
86.122034
0
LINE
8
Image
10
82.239885
20
86.122034
11
84.039658
21
86.196046
0
LINE
8
Image
10
84.039658
20
86.196046
11
85.388400
21
86.393285
0
LINE
8
Image
10
85.388400
20
86.393285
11
85.388328
21
86.393380
0
LINE
8
Image
10
76.327200
20
113.985000
11
75.411803
21
114.147875
0
LINE
8
Image
10
75.411803
20
114.147875
11
73.633100
21
114.253750
0
LINE
8
Image
10
73.633100
20
114.253750
11
71.899622
21
114.270750
0
LINE
8
Image
10
71.899622
20
114.270750
11
71.119900
21
114.167000
0
LINE
8
Image
10
71.119900
20
114.167000
11
73.730450
21
110.568150
0
LINE
8
Image
10
73.730450
20
110.568150
11
76.341000
21
107.158550
0
LINE
8
Image
10
76.341000
20
107.158550
11
76.420838
21
110.484850
0
LINE
8
Image
10
76.420838
20
110.484850
11
76.327115
21
113.985060
0
LINE
8
Image
10
76.327115
20
113.985060
11
76.327200
21
113.985000
0
LINE
8
Image
10
81.104340
20
110.484190
11
83.537700
21
113.871000
0
LINE
8
Image
10
83.537700
20
113.871000
11
80.997700
21
114.018000
0
LINE
8
Image
10
80.997700
20
114.018000
11
78.457700
21
114.018000
0
LINE
8
Image
10
78.457700
20
114.018000
11
78.457700
21
110.631000
0
LINE
8
Image
10
78.457700
20
110.631000
11
78.564287
21
107.244340
0
LINE
8
Image
10
78.564287
20
107.244340
11
81.104287
21
110.484050
0
LINE
8
Image
10
81.104287
20
110.484050
11
81.104340
21
110.484190
 0 
ENDSEC
 0 
EOF